<?xml version="1.0" standalone="no"?>
<!DOCTYPE svg PUBLIC "-//W3C//DTD SVG 20010904//EN"
 "http://www.w3.org/TR/2001/REC-SVG-20010904/DTD/svg10.dtd">
<svg version="1.0" xmlns="http://www.w3.org/2000/svg"
 width="1414.000000pt" height="2000.000000pt" viewBox="0 0 1414.000000 2000.000000"
 preserveAspectRatio="xMidYMid meet">

<g transform="translate(0.000000,2000.000000) scale(0.100000,-0.100000)"
fill="#000000" stroke="none">
<path d="M697 19993 c-2 -5 -5 -30 -6 -57 -2 -48 -2 -48 24 -42 36 9 128 62
150 86 18 20 17 20 -73 20 -50 0 -93 -3 -95 -7z"/>
<path d="M1380 19989 c0 -6 14 -9 33 -7 27 2 33 -1 35 -19 3 -19 9 -22 37 -20
18 1 31 6 28 10 -3 5 3 17 13 28 17 19 16 19 -64 19 -51 0 -82 -4 -82 -11z"/>
<path d="M3230 19990 c0 -5 5 -10 10 -10 6 0 10 5 10 10 0 6 -4 10 -10 10 -5
0 -10 -4 -10 -10z"/>
<path d="M3275 19980 c-3 -6 1 -7 9 -4 18 7 21 14 7 14 -6 0 -13 -4 -16 -10z"/>
<path d="M2700 19950 c-13 -8 -13 -10 2 -10 9 0 20 5 23 10 8 13 -5 13 -25 0z"/>
<path d="M33 19930 c-31 -19 -33 -23 -33 -79 l0 -60 32 11 c52 18 76 37 87 70
12 33 7 48 -15 48 -8 0 -14 7 -14 15 0 20 -19 19 -57 -5z"/>
<path d="M9498 19913 c7 -3 16 -2 19 1 4 3 -2 6 -13 5 -11 0 -14 -3 -6 -6z"/>
<path d="M10315 19790 c-3 -6 1 -7 9 -4 18 7 21 14 7 14 -6 0 -13 -4 -16 -10z"/>
<path d="M9387 19779 c7 -7 15 -10 18 -7 3 3 -2 9 -12 12 -14 6 -15 5 -6 -5z"/>
<path d="M12620 19779 c0 -5 5 -7 10 -4 6 3 10 8 10 11 0 2 -4 4 -10 4 -5 0
-10 -5 -10 -11z"/>
<path d="M1896 19699 c-56 -59 -58 -62 -40 -76 10 -8 28 -11 39 -8 11 4 35 10
52 15 41 10 101 59 102 83 1 19 -7 21 -43 7 -14 -5 -28 -5 -31 -1 -3 5 2 12
11 15 8 3 12 10 9 16 -14 22 -42 7 -99 -51z"/>
<path d="M8517 19659 c8 -8 16 -8 30 0 16 9 14 10 -11 11 -22 0 -27 -3 -19
-11z"/>
<path d="M406 19651 c-3 -5 -15 -7 -26 -4 -28 8 -102 -32 -127 -69 -24 -34
-22 -48 8 -48 10 0 19 -7 19 -15 0 -8 7 -15 15 -15 27 0 129 57 160 90 l30 31
-25 19 c-27 21 -46 25 -54 11z"/>
<path d="M1057 19615 c-21 -20 -44 -49 -52 -64 -14 -27 -13 -29 18 -52 18 -13
32 -31 32 -39 0 -23 47 -21 73 3 12 11 22 28 22 37 0 8 7 26 16 39 19 26 27
98 12 107 -5 3 -20 -2 -33 -10 -22 -15 -25 -15 -25 -1 0 25 -25 17 -63 -20z"/>
<path d="M2150 19590 c0 -5 5 -10 11 -10 5 0 7 5 4 10 -3 6 -8 10 -11 10 -2 0
-4 -4 -4 -10z"/>
<path d="M12930 19586 c0 -2 7 -7 16 -10 8 -3 12 -2 9 4 -6 10 -25 14 -25 6z"/>
<path d="M135 19560 c3 -5 8 -10 11 -10 2 0 4 5 4 10 0 6 -5 10 -11 10 -5 0
-7 -4 -4 -10z"/>
<path d="M6095 19550 c-3 -5 1 -10 10 -10 9 0 13 5 10 10 -3 6 -8 10 -10 10
-2 0 -7 -4 -10 -10z"/>
<path d="M7550 19530 c0 -5 5 -10 10 -10 6 0 10 5 10 10 0 6 -4 10 -10 10 -5
0 -10 -4 -10 -10z"/>
<path d="M5847 19486 c-4 -10 -1 -13 9 -9 7 3 14 9 14 14 0 14 -17 10 -23 -5z"/>
<path d="M1805 19451 c6 -6 26 -13 45 -16 42 -7 21 8 -25 19 -21 5 -27 4 -20
-3z"/>
<path d="M11386 19443 c-4 -9 -3 -20 2 -25 6 -6 10 1 10 16 0 30 -3 32 -12 9z"/>
<path d="M1485 19319 c-4 -6 -14 -8 -22 -5 -19 8 -68 -22 -113 -69 -28 -29
-32 -38 -20 -45 8 -5 18 -6 22 -4 4 3 5 -2 2 -10 -8 -21 22 -32 41 -16 9 7 27
10 45 6 26 -5 35 0 65 32 38 41 42 54 20 72 -8 6 -14 15 -13 18 3 30 -14 43
-27 21z"/>
<path d="M3085 19320 c-3 -5 1 -10 9 -10 9 0 16 5 16 10 0 6 -4 10 -9 10 -6 0
-13 -4 -16 -10z"/>
<path d="M647 19314 c-4 -4 -30 -12 -59 -19 -38 -8 -53 -16 -53 -28 0 -9 -10
-24 -23 -32 -29 -21 -28 -39 3 -59 14 -9 25 -23 25 -31 0 -11 7 -14 25 -9 21
5 25 3 25 -15 0 -12 2 -21 5 -21 29 0 165 126 165 152 0 19 -25 25 -35 8 -3
-5 -11 -10 -18 -10 -8 0 -8 3 1 12 17 17 15 38 -3 38 -8 0 -15 5 -15 10 0 11
-33 14 -43 4z m-8 -56 c-2 -2 -17 -14 -34 -28 l-30 -25 24 28 c14 15 29 27 34
27 6 0 8 -1 6 -2z"/>
<path d="M2053 19187 c-39 -34 -72 -70 -72 -79 -1 -22 2 -22 39 -3 31 16 41 6
15 -15 -18 -15 -20 -80 -3 -80 18 0 114 76 142 113 31 40 32 54 7 62 -11 3
-24 19 -30 35 -5 17 -14 30 -18 29 -4 0 -40 -28 -80 -62z"/>
<path d="M6388 19223 c7 -3 16 -2 19 1 4 3 -2 6 -13 5 -11 0 -14 -3 -6 -6z"/>
<path d="M1780 19200 c0 -5 6 -10 14 -10 8 0 18 5 21 10 3 6 -3 10 -14 10 -12
0 -21 -4 -21 -10z"/>
<path d="M9628 19083 c7 -3 16 -2 19 1 4 3 -2 6 -13 5 -11 0 -14 -3 -6 -6z"/>
<path d="M8355 19050 c3 -5 8 -10 11 -10 2 0 4 5 4 10 0 6 -5 10 -11 10 -5 0
-7 -4 -4 -10z"/>
<path d="M11000 19050 c0 -5 5 -10 11 -10 5 0 7 5 4 10 -3 6 -8 10 -11 10 -2
0 -4 -4 -4 -10z"/>
<path d="M943 18977 c-17 -12 -59 -39 -94 -60 -48 -29 -59 -41 -50 -50 9 -9
18 -8 40 4 27 16 28 16 23 -7 -4 -20 0 -24 21 -24 14 0 29 5 32 10 3 6 11 10
17 10 7 0 0 -13 -15 -28 -15 -15 -27 -33 -27 -40 0 -15 26 -16 35 -2 11 18 23
1 17 -25 -2 -14 0 -25 5 -25 19 0 102 72 127 110 32 49 33 60 3 60 -33 0 -71
29 -58 44 7 9 4 17 -9 29 -25 21 -27 21 -67 -6z"/>
<path d="M12080 18987 c27 -15 36 -14 25 2 -3 6 -16 11 -28 11 -21 0 -21 -1 3
-13z"/>
<path d="M1627 18814 c-46 -37 -55 -49 -46 -60 6 -8 16 -11 21 -8 6 4 8 -2 3
-15 -4 -14 -2 -21 7 -21 7 0 24 -12 37 -25 28 -30 62 -32 86 -5 12 14 16 27
11 47 -4 15 -7 40 -6 55 0 18 -6 29 -20 33 -16 5 -18 10 -11 19 11 14 5 26
-13 26 -6 0 -37 -21 -69 -46z m83 -109 c-7 -9 -15 -13 -17 -11 -7 7 7 26 19
26 6 0 6 -6 -2 -15z"/>
<path d="M5000 18848 c0 -14 39 -43 47 -34 7 7 -6 25 -28 36 -14 8 -19 7 -19
-2z"/>
<path d="M180 18840 c-13 -9 -13 -10 0 -9 8 0 24 4 35 9 l20 9 -20 0 c-11 0
-27 -4 -35 -9z"/>
<path d="M10704 18831 c-162 -44 -253 -120 -329 -274 -74 -152 -105 -312 -105
-554 l0 -153 -47 6 c-141 17 -304 48 -436 83 -121 32 -153 38 -178 29 -35 -12
-36 -25 -5 -59 22 -24 60 -38 261 -99 43 -13 270 -57 337 -65 31 -4 64 -12 72
-19 9 -6 27 -51 41 -99 59 -205 179 -362 380 -497 122 -82 192 -118 310 -159
120 -42 125 -49 118 -159 -19 -308 106 -621 321 -803 171 -146 373 -234 590
-258 90 -11 116 -5 116 23 -1 27 -22 37 -111 51 -176 27 -316 89 -482 214
-209 157 -308 339 -337 622 -15 154 -14 229 6 229 9 0 116 -18 237 -40 420
-77 492 -83 922 -77 349 4 386 6 460 26 290 78 384 211 286 405 -87 170 -264
320 -458 387 -102 35 -286 60 -488 66 -217 6 -299 -5 -472 -62 -293 -98 -457
-250 -558 -517 -16 -45 -19 -47 -49 -41 -90 17 -223 81 -363 178 -134 91 -279
271 -322 396 -21 63 -28 119 -13 119 4 0 59 5 122 10 189 17 344 63 478 142
73 43 218 187 261 260 67 114 85 174 85 273 0 80 -3 98 -30 155 -39 84 -79
129 -162 183 -100 66 -169 88 -287 93 -78 3 -116 0 -171 -15z m336 -123 c260
-127 282 -370 55 -617 -86 -94 -227 -177 -363 -212 -102 -27 -337 -48 -354
-31 -21 21 -15 340 9 452 37 175 116 318 212 384 76 53 133 67 256 63 103 -2
115 -5 185 -39z m1330 -1163 c294 -48 380 -77 499 -170 60 -45 141 -146 180
-224 41 -80 26 -139 -47 -185 -54 -34 -165 -72 -249 -85 -97 -15 -807 -15
-909 0 -48 7 -79 8 -83 2 -5 -8 -365 67 -476 100 -37 11 -40 15 -38 46 2 58
76 191 148 268 76 83 133 122 253 173 233 100 440 121 722 75z"/>
<path d="M10668 18623 c7 -3 16 -2 19 1 4 3 -2 6 -13 5 -11 0 -14 -3 -6 -6z"/>
<path d="M10796 18595 c4 -8 8 -15 10 -15 2 0 4 7 4 15 0 8 -4 15 -10 15 -5 0
-7 -7 -4 -15z"/>
<path d="M10440 18057 c0 -15 31 -69 37 -63 3 3 -4 20 -16 38 -11 18 -21 29
-21 25z"/>
<path d="M10910 18045 c0 -8 4 -15 9 -15 5 0 11 7 15 15 3 9 0 15 -9 15 -8 0
-15 -7 -15 -15z"/>
<path d="M10895 17980 c-3 -5 1 -10 10 -10 9 0 13 5 10 10 -3 6 -8 10 -10 10
-2 0 -7 -4 -10 -10z"/>
<path d="M12920 17120 c-9 -6 -10 -10 -3 -10 6 0 15 5 18 10 8 12 4 12 -15 0z"/>
<path d="M230 18819 c-45 -27 -90 -69 -90 -85 0 -21 30 -44 57 -44 14 0 31 -6
37 -14 8 -12 21 -13 55 -6 46 8 79 36 62 53 -6 6 -2 21 12 39 l21 29 -26 24
c-34 31 -80 32 -128 4z"/>
<path d="M6547 18795 c19 -25 50 -45 37 -23 -15 23 -39 48 -47 48 -4 0 0 -11
10 -25z"/>
<path d="M4795 18800 c4 -6 11 -8 16 -5 14 9 11 15 -7 15 -8 0 -12 -5 -9 -10z"/>
<path d="M2765 18740 c-3 -6 1 -7 9 -4 18 7 21 14 7 14 -6 0 -13 -4 -16 -10z"/>
<path d="M70 18600 c0 -5 5 -10 10 -10 6 0 10 5 10 10 0 6 -4 10 -10 10 -5 0
-10 -4 -10 -10z"/>
<path d="M1308 18518 c-67 -66 -109 -172 -62 -154 8 3 25 -5 39 -18 l26 -24
47 26 c64 35 71 48 70 114 -1 53 -3 57 -27 60 -14 2 -26 9 -26 17 0 29 -25 21
-67 -21z m17 -138 c-3 -5 -12 -10 -18 -10 -7 0 -6 4 3 10 19 12 23 12 15 0z"/>
<path d="M2045 18519 c-47 -41 -56 -61 -48 -99 6 -30 8 -31 41 -25 48 9 102
37 131 69 18 19 27 23 33 14 4 -8 7 0 5 19 -2 29 -5 32 -56 42 -71 14 -65 16
-106 -20z"/>
<path d="M11781 18424 c0 -11 3 -14 6 -6 3 7 2 16 -1 19 -3 4 -6 -2 -5 -13z"/>
<path d="M676 18410 c-48 -24 -75 -49 -99 -89 -18 -31 -18 -31 7 -56 31 -31
69 -32 114 -5 73 44 102 101 67 130 -8 7 -15 19 -15 26 0 19 -28 17 -74 -6z
m68 -49 c3 -4 -1 -16 -8 -26 -12 -17 -13 -16 -18 8 -5 26 13 39 26 18z"/>
<path d="M1526 18404 c-4 -9 2 -14 15 -14 11 0 17 -4 14 -10 -3 -5 -1 -10 5
-10 6 0 9 -4 5 -9 -3 -5 -1 -12 5 -16 11 -7 13 9 4 42 -7 25 -40 37 -48 17z"/>
<path d="M3430 18400 c0 -5 5 -10 10 -10 6 0 10 5 10 10 0 6 -4 10 -10 10 -5
0 -10 -4 -10 -10z"/>
<path d="M12290 18400 c0 -5 5 -10 10 -10 6 0 10 5 10 10 0 6 -4 10 -10 10 -5
0 -10 -4 -10 -10z"/>
<path d="M8814 18356 c-9 -9 -8 -17 1 -30 14 -19 32 -5 19 16 -5 7 -3 8 6 3 8
-5 11 -3 8 5 -6 19 -21 22 -34 6z"/>
<path d="M7 18294 c-4 -4 -7 -27 -7 -50 0 -32 4 -44 17 -47 17 -4 17 -5 1 -6
-14 -1 -18 -10 -18 -38 l0 -37 34 33 c41 40 67 92 48 99 -7 2 -12 12 -12 23 0
10 -6 19 -14 19 -8 0 -21 2 -28 5 -8 3 -17 2 -21 -1z"/>
<path d="M8220 18290 c0 -5 5 -10 11 -10 5 0 7 5 4 10 -3 6 -8 10 -11 10 -2 0
-4 -4 -4 -10z"/>
<path d="M1951 18186 c-8 -9 -11 -19 -7 -23 9 -9 29 13 24 27 -2 8 -8 7 -17
-4z"/>
<path d="M6680 18195 c1 -17 29 -49 37 -41 4 3 -3 16 -15 29 -12 12 -22 17
-22 12z"/>
<path d="M11725 18150 c3 -5 10 -10 16 -10 5 0 9 5 9 10 0 6 -7 10 -16 10 -8
0 -12 -4 -9 -10z"/>
<path d="M3905 18099 c-4 -6 -5 -12 -2 -15 2 -3 7 2 10 11 7 17 1 20 -8 4z"/>
<path d="M1700 18067 c-64 -32 -65 -33 -66 -74 -2 -50 11 -58 69 -42 45 12
134 91 139 124 5 35 -65 31 -142 -8z m-30 -61 c0 -3 -4 -8 -10 -11 -5 -3 -10
-1 -10 4 0 6 5 11 10 11 6 0 10 -2 10 -4z"/>
<path d="M996 17874 c-31 -36 -56 -69 -56 -74 0 -17 32 -40 57 -40 39 0 94 30
114 64 23 37 23 41 4 59 -9 9 -24 13 -37 9 -20 -5 -21 -4 -10 11 13 16 9 37
-7 37 -5 0 -34 -30 -65 -66z"/>
<path d="M376 17785 c-41 -40 -54 -74 -35 -86 40 -25 122 11 148 65 16 35 3
53 -28 37 -17 -10 -21 -9 -21 4 0 25 -27 17 -64 -20z"/>
<path d="M7436 17621 c-4 -7 -5 -15 -2 -18 9 -9 19 4 14 18 -4 11 -6 11 -12 0z"/>
<path d="M8168 17513 c6 -2 18 -2 25 0 6 3 1 5 -13 5 -14 0 -19 -2 -12 -5z"/>
<path d="M8325 17460 c3 -5 8 -10 11 -10 2 0 4 5 4 10 0 6 -5 10 -11 10 -5 0
-7 -4 -4 -10z"/>
<path d="M2583 17434 c-118 -24 -205 -90 -255 -192 -35 -74 -29 -126 54 -442
42 -157 115 -436 162 -620 48 -184 97 -354 108 -378 27 -52 99 -122 159 -153
176 -90 398 -54 535 87 73 74 107 149 112 244 4 71 -4 108 -116 540 -67 256
-130 503 -142 550 -25 98 -34 112 -68 108 -50 -6 -53 -32 -21 -153 16 -60 61
-234 100 -385 39 -151 91 -351 116 -445 35 -137 43 -180 38 -220 -13 -101 -90
-197 -204 -252 -75 -36 -187 -37 -275 -3 -60 23 -124 77 -149 127 -12 22 -224
827 -322 1218 -14 56 -15 78 -7 110 28 98 134 168 255 167 123 -1 181 -52 217
-187 157 -596 240 -932 236 -951 -7 -28 -58 -67 -109 -84 -51 -16 -119 -5
-144 23 -14 15 -46 123 -102 342 -111 431 -118 453 -141 460 -30 9 -60 -12
-60 -42 0 -49 193 -775 215 -806 52 -78 192 -103 298 -52 92 43 141 107 139
180 -1 35 -197 817 -254 1010 -16 56 -29 79 -67 116 -77 76 -191 107 -308 83z"/>
<path d="M8370 17420 c0 -5 5 -10 11 -10 5 0 7 5 4 10 -3 6 -8 10 -11 10 -2 0
-4 -4 -4 -10z"/>
<path d="M13542 17293 c5 -26 38 -29 38 -4 0 15 -6 21 -21 21 -14 0 -19 -5
-17 -17z"/>
<path d="M6630 17083 c0 -23 15 -39 24 -25 3 5 -1 18 -9 28 -14 18 -14 18 -15
-3z"/>
<path d="M1645 16700 c4 -6 -8 -10 -28 -10 -23 0 -37 -6 -41 -16 -5 -13 -9
-14 -21 -4 -23 19 -29 5 -10 -24 16 -24 16 -26 1 -26 -11 0 -16 -9 -16 -30 0
-16 -5 -30 -12 -30 -6 0 -8 -3 -5 -7 4 -3 -1 -12 -11 -19 -16 -13 -16 -13 1
-14 9 0 17 -4 17 -10 0 -5 -3 -9 -8 -7 -6 2 -14 -8 -11 -15 8 -28 5 -38 -14
-39 -19 -1 -20 -2 -3 -6 15 -4 16 -7 5 -14 -11 -7 -11 -9 4 -9 9 0 17 -4 17
-10 0 -5 -4 -10 -9 -10 -5 0 -8 -11 -5 -24 3 -17 -1 -26 -13 -29 -17 -4 -17
-5 0 -6 19 -1 23 -31 5 -49 -6 -6 -12 -23 -13 -36 0 -22 3 -24 30 -20 27 4 28
3 7 -5 -12 -6 -27 -22 -32 -36 -12 -33 -12 -38 -1 -30 5 3 12 1 16 -5 3 -5 -3
-10 -14 -10 -12 0 -21 -4 -21 -10 0 -5 7 -10 16 -10 11 0 14 -6 9 -21 -5 -14
-2 -25 6 -30 11 -7 10 -9 -3 -9 -12 0 -18 -8 -18 -25 0 -13 8 -29 18 -34 16
-9 15 -11 -6 -27 -22 -15 -22 -17 -6 -29 10 -7 19 -24 21 -38 3 -21 0 -24 -17
-20 -26 7 -26 -13 0 -27 21 -11 28 -40 10 -40 -5 0 -10 -5 -10 -11 0 -6 9 -9
20 -6 11 3 20 1 20 -4 0 -5 -7 -9 -15 -9 -9 0 -12 -6 -8 -16 3 -9 0 -19 -7
-24 -9 -6 -9 -12 -1 -29 10 -17 9 -22 -3 -27 -13 -5 -13 -12 -1 -50 7 -24 10
-44 7 -44 -4 0 0 -5 8 -10 11 -7 5 -10 -25 -11 -28 -1 -32 -3 -15 -6 28 -6 71
-33 52 -33 -8 0 -21 -7 -30 -17 -16 -15 -15 -16 11 -11 15 3 27 1 27 -3 0 -5
-7 -9 -16 -9 -9 0 -14 -6 -11 -12 2 -7 14 -12 26 -10 20 2 21 1 7 -14 -9 -8
-14 -20 -11 -25 4 -5 1 -9 -5 -9 -7 0 -9 -7 -6 -15 4 -10 -3 -20 -19 -27 -31
-14 -32 -28 -4 -28 17 0 19 -3 10 -14 -9 -11 -9 -15 1 -19 10 -4 10 -8 -2 -17
-12 -10 -11 -11 8 -7 22 5 30 -7 12 -18 -6 -3 -6 -15 0 -30 7 -19 6 -23 -5
-19 -10 4 -18 -4 -25 -21 -13 -34 -13 -32 10 -38 23 -6 28 -51 8 -61 -10 -5
-10 -7 -1 -12 17 -8 5 -32 -26 -49 l-26 -14 33 -1 c17 0 32 -4 32 -10 0 -5 7
-10 16 -10 8 0 12 -5 9 -10 -4 -6 -10 -8 -15 -5 -12 7 -31 -20 -33 -47 0 -13
-5 -26 -11 -30 -5 -3 4 -18 19 -32 25 -24 26 -26 8 -26 -26 0 -39 -51 -17 -63
17 -10 19 -37 2 -37 -9 0 -9 -3 0 -12 16 -16 15 -58 0 -59 -7 0 -3 -5 10 -11
30 -15 28 -26 -5 -21 l-28 5 23 -17 c24 -18 21 -35 -6 -35 -15 0 -15 2 -2 10
13 8 12 10 -2 10 -22 0 -23 -10 -3 -36 19 -26 19 -27 -12 -59 -26 -26 -26 -27
-5 -16 32 17 38 7 18 -24 -17 -25 -16 -26 15 -39 30 -13 31 -14 11 -20 -29
-10 -28 -36 1 -37 12 0 16 -3 9 -6 -10 -4 -10 -8 -1 -19 8 -9 8 -14 1 -14 -6
0 -14 5 -17 10 -3 6 -14 10 -23 10 -15 0 -15 -2 -2 -10 12 -7 12 -12 3 -21
-10 -10 -9 -17 4 -31 13 -14 13 -18 2 -18 -11 0 -11 -2 1 -10 12 -8 12 -10 -5
-11 l-20 0 20 -9 c19 -7 19 -8 -5 -18 -14 -5 -28 -8 -32 -5 -5 2 -8 -1 -8 -7
0 -8 11 -9 33 -5 22 4 28 3 18 -4 -12 -8 -12 -12 -2 -25 7 -8 10 -20 7 -25 -4
-5 -2 -12 3 -16 15 -9 7 -95 -10 -106 -10 -6 -10 -9 -1 -9 6 0 12 -7 12 -15 0
-8 6 -12 14 -9 11 4 13 0 9 -15 -3 -13 -14 -21 -27 -22 -20 0 -20 -1 2 -10 13
-5 29 -6 34 -2 7 3 8 1 4 -5 -4 -7 -15 -12 -24 -13 -14 0 -13 -2 3 -10 14 -6
5 -7 -30 -3 -45 5 -48 4 -30 -9 11 -8 29 -17 40 -19 12 -2 18 -10 16 -19 -2
-8 -4 -22 -5 -31 0 -10 -7 -18 -16 -19 -13 0 -13 -1 0 -6 36 -15 38 -28 6 -39
l-31 -11 33 -7 c40 -9 41 -22 2 -29 -16 -4 -30 -12 -30 -18 0 -7 9 -9 21 -6
20 5 20 5 4 -13 -18 -20 -7 -33 22 -24 10 3 7 -2 -9 -13 -24 -16 -25 -20 -12
-38 17 -23 18 -35 3 -35 -6 0 -18 -7 -27 -16 -15 -15 -14 -16 7 -9 21 6 23 5
17 -22 -5 -21 -2 -34 8 -42 8 -7 13 -18 10 -26 -3 -7 0 -16 6 -20 14 -9 -6
-35 -27 -35 -23 0 -4 -20 20 -21 15 0 17 -2 7 -6 -8 -3 -23 -14 -34 -25 -18
-19 -17 -19 4 -25 22 -6 22 -7 5 -19 -14 -10 -15 -17 -7 -27 7 -8 9 -17 5 -20
-3 -4 -1 -7 5 -7 19 0 14 -18 -5 -23 -17 -4 -17 -5 0 -6 14 -1 16 -5 7 -20 -8
-16 -6 -21 12 -27 l21 -6 -22 -12 c-23 -13 -19 -28 5 -19 10 3 12 0 8 -10 -3
-9 -12 -13 -19 -11 -9 4 -12 -3 -11 -20 1 -28 15 -33 34 -14 8 8 12 8 12 1 0
-6 -7 -14 -15 -17 -13 -4 -14 -10 -5 -26 9 -17 8 -20 -11 -20 -15 0 -19 -4
-15 -16 4 -9 2 -22 -4 -28 -11 -14 4 -81 20 -91 15 -9 12 -25 -4 -25 -7 0 -16
-9 -19 -21 -4 -14 -2 -19 7 -16 17 7 8 -45 -10 -56 -7 -4 -11 -13 -10 -20 15
-72 19 -86 26 -82 14 9 5 -36 -10 -46 -13 -8 -13 -11 3 -20 20 -12 23 -29 3
-29 -8 0 -16 -7 -19 -14 -4 -10 -1 -13 9 -9 7 3 14 0 14 -6 0 -6 -8 -11 -17
-11 -15 0 -16 -2 -3 -9 8 -6 18 -7 22 -5 15 10 8 -19 -9 -39 -17 -19 -17 -19
4 -13 12 4 24 2 28 -3 3 -7 0 -8 -9 -5 -9 3 -16 1 -16 -5 0 -6 7 -11 16 -11 8
0 13 -4 10 -9 -4 -5 0 -12 6 -14 10 -4 10 -6 1 -6 -19 -1 -54 -34 -43 -41 5
-3 11 -18 14 -34 5 -26 3 -28 -22 -22 -15 3 -21 3 -14 0 19 -9 14 -24 -10 -34
-21 -9 -21 -9 6 -7 23 2 29 -3 32 -20 3 -16 0 -21 -11 -17 -16 7 -21 -11 -6
-20 5 -3 7 -15 4 -26 -4 -14 0 -20 11 -20 19 0 23 -45 5 -56 -8 -4 -7 -9 2
-15 12 -8 12 -10 0 -18 -11 -7 -11 -9 0 -14 8 -3 3 -6 -11 -6 -20 -1 -22 -3
-10 -11 8 -5 11 -10 6 -10 -5 0 -3 -7 4 -15 7 -8 10 -15 7 -15 -4 0 -3 -10 2
-22 6 -17 4 -26 -8 -35 -14 -11 -14 -12 4 -13 17 0 17 -2 5 -10 -13 -8 -12
-12 7 -25 13 -9 23 -21 23 -27 0 -7 -4 -7 -13 1 -18 15 -30 2 -15 -16 9 -11 9
-17 -3 -24 -12 -8 -12 -10 1 -18 12 -8 12 -12 -3 -29 -17 -19 -17 -20 0 -27
16 -7 15 -9 -7 -15 -22 -7 -23 -8 -4 -9 24 -1 39 -37 21 -48 -7 -4 -3 -9 9
-14 17 -7 16 -8 -5 -8 -24 -1 -24 -1 -5 -15 18 -14 18 -15 -6 -25 -24 -11 -24
-11 7 -8 18 2 30 0 27 -4 -2 -4 2 -10 8 -13 9 -4 8 -5 -2 -5 -36 3 -46 -2 -46
-21 0 -11 5 -20 11 -20 5 -1 -1 -8 -15 -16 l-25 -15 27 6 c22 4 26 2 22 -10
-4 -8 -11 -15 -18 -16 -6 0 -1 -4 12 -9 12 -5 30 -7 40 -4 14 5 15 4 2 -5 -8
-6 -28 -11 -45 -12 -24 -1 -25 -3 -7 -6 25 -5 29 -18 7 -27 -20 -7 -19 -32 2
-40 12 -5 13 -10 5 -18 -6 -6 -8 -17 -5 -24 3 -9 -2 -14 -17 -14 -22 0 -22 -1
-7 -18 13 -14 14 -21 5 -30 -9 -9 -9 -12 0 -12 7 0 12 -9 12 -19 0 -11 6 -21
12 -23 9 -3 8 -9 -4 -22 -13 -12 -15 -23 -8 -40 5 -13 6 -27 3 -30 -4 -3 2 -6
11 -6 10 0 16 -6 13 -12 -2 -7 -13 -12 -23 -11 -10 1 -13 0 -6 -3 17 -8 15
-22 -5 -27 -17 -4 -17 -5 0 -6 25 -2 21 -21 -5 -22 -17 -1 -19 -2 -5 -6 20 -5
23 -23 5 -23 -10 0 -9 -3 1 -9 7 -5 10 -14 7 -20 -5 -7 1 -11 14 -11 31 0 19
-23 -13 -24 -30 -2 -63 -26 -35 -26 9 0 18 5 20 12 2 6 10 8 17 4 9 -6 9 -11
1 -21 -7 -9 -8 -15 -1 -20 14 -8 -9 -45 -29 -45 -9 -1 -6 -6 9 -14 22 -12 23
-14 6 -23 -19 -11 -12 -33 11 -33 19 0 18 -16 -1 -24 -12 -4 -14 -10 -5 -25
14 -27 13 -31 -7 -31 -16 -1 -16 -2 -3 -13 8 -7 16 -30 18 -52 3 -37 1 -40
-24 -42 -14 0 -31 -7 -38 -13 -11 -13 -6 -12 39 6 19 8 21 -36 3 -54 -9 -9 -9
-12 3 -12 8 0 24 -7 35 -16 18 -15 18 -15 -7 -10 -19 4 -29 1 -33 -10 -4 -12
-2 -15 9 -11 18 7 30 -9 13 -16 -10 -4 -10 -8 1 -15 10 -8 11 -14 1 -32 -7
-12 -8 -20 -3 -17 4 3 14 -2 22 -11 13 -14 11 -15 -18 -9 -31 6 -32 6 -20 -11
8 -9 19 -20 24 -24 6 -4 -1 -8 -15 -9 -16 -1 -19 -3 -8 -6 21 -5 32 -33 13
-33 -20 0 -19 -6 5 -30 12 -12 18 -25 15 -30 -4 -6 -2 -10 4 -10 12 0 -13 -50
-31 -61 -10 -7 -8 -9 6 -9 15 0 16 -3 6 -15 -10 -12 -10 -18 -1 -29 9 -11 9
-16 0 -21 -8 -6 -7 -10 5 -17 9 -5 21 -6 26 -3 6 3 7 -1 4 -9 -7 -18 -20 -21
-29 -6 -4 6 -11 8 -16 4 -6 -4 -4 -13 5 -23 9 -10 13 -21 9 -25 -5 -4 1 -14
11 -22 19 -13 19 -14 -7 -14 -31 0 -28 -25 4 -35 21 -7 26 -23 7 -22 -7 0 -24
-1 -37 -1 -19 -2 -21 -5 -11 -17 6 -8 9 -19 6 -24 -4 -5 -2 -13 4 -16 6 -4 8
-15 5 -26 -5 -14 -1 -19 12 -19 17 -1 17 -1 -1 -11 -15 -9 -16 -13 -5 -20 12
-8 12 -11 -1 -19 -11 -8 -9 -9 10 -5 22 5 25 3 26 -25 1 -23 -3 -30 -17 -30
-21 0 -26 -16 -6 -24 8 -3 6 -9 -7 -20 -18 -14 -18 -16 -2 -16 9 0 27 -9 39
-20 18 -17 19 -22 7 -30 -16 -10 -33 -3 -25 11 4 5 -4 9 -17 9 -17 0 -19 -3
-9 -9 11 -7 11 -9 0 -14 -10 -4 -9 -6 4 -6 20 -1 23 -17 5 -24 -10 -4 -10 -7
0 -15 7 -5 10 -16 7 -24 -4 -9 -1 -19 5 -23 6 -4 8 -16 5 -26 -4 -11 -1 -27 7
-36 12 -15 11 -15 -9 -5 -27 15 -45 15 -20 1 9 -5 17 -19 17 -30 0 -11 4 -17
10 -14 15 9 12 -15 -4 -31 -8 -8 -22 -14 -31 -14 -13 0 -14 -4 -5 -20 6 -11 7
-20 3 -21 -4 -1 3 -4 17 -8 15 -4 28 -3 33 3 5 7 7 6 5 -4 -3 -8 -15 -15 -29
-15 -14 0 -25 -7 -27 -17 -2 -13 3 -18 17 -18 25 0 37 -18 17 -26 -9 -3 -13
-10 -10 -15 3 -5 -2 -12 -11 -15 -14 -6 -14 -8 2 -20 17 -13 17 -13 -2 -14
-16 -1 -14 -4 10 -15 17 -7 23 -14 15 -14 -12 -1 -13 -3 -1 -10 10 -6 5 -11
-19 -16 -23 -5 -29 -10 -19 -16 15 -9 14 -11 -21 -26 -19 -9 -21 -12 -7 -12
10 -1 27 4 38 9 11 6 24 8 31 4 6 -4 -1 -12 -18 -20 -19 -8 -23 -13 -11 -13
20 -1 24 -21 3 -21 -8 0 -17 -7 -20 -16 -3 -8 -2 -12 4 -9 6 3 10 3 10 -2 0
-13 -14 -30 -28 -34 -9 -3 -3 -15 18 -38 26 -26 30 -35 19 -42 -9 -6 -4 -8 16
-5 17 2 24 1 18 -1 -19 -7 -16 -31 5 -36 11 -3 9 -5 -8 -6 -20 -1 -22 -3 -10
-11 12 -8 12 -10 1 -10 -10 0 -11 -3 -2 -14 9 -11 9 -15 -1 -19 -10 -4 -10 -8
2 -16 13 -9 13 -11 -2 -11 -19 0 -18 -28 3 -41 11 -7 8 -9 -11 -10 -14 0 -19
-3 -12 -6 17 -7 15 -23 -3 -23 -8 0 -15 -4 -15 -10 0 -5 4 -10 9 -10 14 0 20
-40 11 -66 -7 -17 -6 -24 2 -24 7 0 3 -7 -8 -15 -12 -9 -14 -14 -5 -15 7 0 11
-6 7 -15 -3 -8 -1 -15 5 -15 6 0 8 -9 4 -20 -5 -16 -2 -20 15 -20 12 0 18 -4
15 -11 -4 -5 -21 -8 -38 -5 l-32 5 27 -11 c28 -12 49 -42 22 -31 -7 3 -14 0
-14 -6 0 -6 7 -11 15 -11 18 0 20 -20 3 -20 -7 0 -21 -12 -31 -25 -17 -24 -17
-25 2 -25 26 0 34 -15 16 -30 -24 -20 -19 -43 9 -38 19 4 22 1 18 -14 -3 -12
-10 -17 -22 -13 -10 3 -21 2 -24 -3 -3 -6 2 -12 13 -15 16 -4 38 -47 22 -45
-22 2 -32 -4 -28 -17 4 -8 2 -17 -3 -20 -19 -12 -10 -26 12 -19 21 6 22 6 4
-12 -12 -11 -15 -19 -7 -22 6 -2 11 -10 11 -18 0 -8 5 -14 10 -14 6 0 10 -4
10 -10 0 -5 -7 -10 -15 -10 -8 0 -15 5 -15 10 0 6 -4 10 -10 10 -5 0 -7 -7 -3
-16 3 -9 0 -20 -8 -25 -10 -7 -7 -8 10 -7 13 2 26 -3 28 -9 3 -8 -4 -13 -17
-13 -20 0 -21 -2 -9 -16 7 -9 14 -30 14 -46 0 -16 7 -33 15 -38 12 -8 10 -10
-9 -10 -19 0 -21 -3 -12 -14 10 -11 7 -17 -10 -29 -21 -15 -21 -15 7 -20 26
-4 27 -5 8 -11 -16 -6 -20 -14 -16 -32 2 -13 11 -24 19 -24 20 0 11 -23 -14
-35 l-21 -11 21 -17 c18 -14 19 -19 8 -26 -8 -5 -12 -15 -9 -22 3 -8 2 -23 -2
-34 -4 -11 -4 -28 1 -37 6 -10 5 -19 -1 -23 -8 -5 -7 -12 1 -22 8 -9 9 -17 3
-21 -6 -4 -10 -35 -9 -69 0 -35 -3 -63 -7 -63 -4 0 -8 -4 -8 -10 0 -5 6 -10
14 -10 17 0 15 -32 -2 -38 -23 -7 -11 -22 17 -22 17 0 33 -5 37 -11 5 -8 -1
-10 -19 -7 -40 8 -50 -5 -26 -31 20 -21 20 -23 4 -41 -10 -11 -12 -20 -6 -24
6 -4 8 -13 4 -21 -3 -10 1 -15 13 -16 12 0 6 -5 -14 -12 l-32 -12 22 -23 c19
-18 20 -24 9 -31 -11 -7 -10 -11 5 -20 17 -9 17 -10 2 -11 -10 0 -18 -4 -18
-10 0 -5 5 -10 11 -10 5 0 7 -5 4 -10 -3 -6 -2 -10 3 -10 11 0 21 -30 15 -46
-2 -7 -13 -10 -23 -7 -22 6 -28 -12 -7 -20 7 -4 6 -6 -5 -6 -10 -1 -15 -8 -13
-18 2 -10 4 -24 4 -30 1 -7 13 -13 29 -14 l27 0 -25 -11 c-15 -6 -20 -12 -12
-15 15 -6 16 -39 1 -49 -8 -4 -7 -9 2 -15 8 -5 9 -9 3 -9 -8 0 -10 -22 -7 -67
6 -95 6 -93 14 -93 17 0 3 -39 -16 -45 -14 -5 -16 -8 -6 -12 15 -6 51 -40 51
-48 0 -3 -9 -1 -21 5 -24 13 -38 5 -21 -12 15 -15 16 -48 1 -48 -8 0 -8 -4 1
-14 16 -20 19 -86 5 -111 -6 -11 -11 -30 -10 -42 1 -13 -2 -23 -7 -23 -5 0 1
-10 15 -22 l25 -22 -25 -33 c-14 -18 -20 -33 -14 -33 7 0 10 -4 7 -9 -3 -5 1
-11 9 -15 8 -3 15 -10 15 -15 0 -6 -6 -8 -14 -5 -8 3 -17 1 -21 -5 -4 -7 5
-11 24 -11 40 0 40 -15 0 -29 -27 -9 -30 -13 -19 -26 7 -8 19 -15 26 -15 8 0
14 -4 14 -10 0 -5 -9 -10 -21 -10 -16 0 -19 -4 -14 -21 5 -15 4 -19 -4 -15 -6
4 -11 2 -11 -3 0 -6 5 -11 10 -11 17 0 11 -38 -7 -49 -10 -6 -13 -11 -6 -11 6
0 19 7 28 16 9 9 19 14 22 10 4 -3 -2 -12 -12 -20 -21 -15 -31 -56 -14 -56 6
0 9 -9 6 -20 -3 -11 -1 -20 4 -20 5 0 9 -4 9 -9 0 -5 -10 -7 -22 -4 l-23 5 23
-19 c21 -17 22 -22 11 -47 -11 -23 -10 -29 1 -36 11 -7 11 -11 1 -24 -7 -9
-17 -13 -22 -10 -5 3 -9 -2 -9 -10 0 -9 8 -16 19 -16 11 0 23 -4 26 -10 3 -5
-4 -10 -15 -10 -17 0 -20 -4 -15 -17 4 -10 10 -26 12 -35 3 -10 13 -19 22 -19
9 -1 3 -4 -13 -8 -38 -8 -45 -41 -9 -41 l26 0 -26 -21 -27 -20 20 -21 c24 -26
25 -37 6 -52 -17 -14 -32 -106 -17 -106 6 0 8 -7 5 -15 -4 -10 0 -15 12 -16
11 0 14 -3 7 -6 -18 -7 -16 -23 2 -23 8 0 21 -13 30 -30 14 -27 14 -30 0 -30
-9 0 -23 7 -31 15 -22 22 -40 18 -20 -4 15 -16 15 -19 1 -31 -22 -19 -18 -40
13 -66 l27 -24 -30 0 c-20 0 -26 -3 -17 -9 11 -6 11 -13 1 -35 -11 -23 -10
-29 2 -37 12 -8 11 -12 -5 -24 -17 -13 -17 -15 -3 -15 14 0 15 -4 7 -26 -6
-14 -8 -29 -5 -34 3 -5 1 -12 -5 -15 -8 -5 -8 -11 0 -20 6 -7 7 -21 3 -31 -6
-18 -5 -18 17 1 13 11 20 14 16 7 -4 -7 -2 -20 6 -29 11 -14 10 -15 -10 -9
-19 6 -23 4 -20 -10 2 -12 -5 -20 -22 -25 -14 -4 -19 -7 -12 -8 22 -2 62 -33
56 -43 -4 -6 -10 -5 -15 3 -4 7 -11 11 -14 7 -3 -3 2 -14 12 -24 13 -12 14
-19 5 -22 -9 -3 -9 -9 -1 -24 10 -18 8 -19 -11 -13 -19 6 -20 4 -12 -12 5 -10
7 -24 5 -30 -3 -7 0 -13 5 -13 6 0 15 -14 21 -31 9 -26 8 -30 -4 -25 -8 3 -17
1 -20 -3 -3 -5 2 -12 11 -15 21 -8 6 -29 -17 -23 -11 3 -19 1 -19 -4 0 -5 12
-9 27 -9 25 0 26 0 8 -20 -10 -11 -13 -20 -7 -20 7 0 12 -5 12 -11 0 -6 -9 -9
-20 -6 -13 3 -20 0 -20 -9 0 -8 5 -14 11 -14 6 0 17 -7 25 -15 14 -13 13 -15
-5 -15 -25 0 -38 -19 -20 -31 8 -5 10 -9 5 -9 -5 0 -3 -7 4 -15 10 -12 10 -18
0 -31 -11 -13 -10 -16 9 -21 16 -4 19 -9 11 -18 -6 -7 -12 -27 -13 -44 -1 -17
-8 -31 -14 -31 -21 0 -15 -16 12 -30 28 -15 33 -30 10 -30 -9 0 -12 -6 -9 -15
4 -11 -1 -15 -17 -15 -23 0 -23 0 -4 -14 15 -10 20 -24 19 -51 -1 -20 -7 -42
-12 -47 -7 -7 -7 -19 -1 -35 5 -14 6 -29 3 -35 -4 -6 1 -8 15 -3 20 6 21 5 9
-14 -8 -13 -19 -19 -30 -15 -22 7 -24 -11 -3 -20 8 -3 15 -17 15 -30 0 -14 8
-30 18 -35 10 -7 13 -14 7 -18 -28 -22 -36 -42 -25 -63 9 -16 8 -21 -5 -26 -8
-3 -12 -11 -8 -18 12 -18 9 -40 -7 -60 -14 -18 -13 -19 2 -13 12 4 18 -1 23
-24 4 -16 11 -29 16 -29 5 0 9 -4 9 -10 0 -5 -6 -10 -14 -10 -11 0 -13 -10 -9
-42 6 -39 5 -41 -18 -35 -22 5 -22 5 -7 -7 23 -17 23 -36 1 -36 -14 0 -13 -3
5 -20 24 -22 27 -35 12 -45 -5 -3 -7 -12 -3 -20 3 -8 0 -15 -6 -15 -6 0 -11
-4 -11 -10 0 -5 7 -10 15 -10 8 0 15 -4 15 -10 0 -5 11 -10 25 -10 14 0 25 -4
25 -10 0 -5 -11 -10 -25 -10 -31 0 -43 -25 -25 -53 8 -13 9 -22 3 -24 -6 -2
-19 -10 -29 -18 -21 -16 -23 -14 36 -19 19 -2 14 -36 -8 -53 -12 -8 -13 -12
-4 -13 7 0 10 -5 6 -11 -11 -18 -6 -91 6 -99 9 -6 9 -13 1 -28 -17 -32 -13
-42 14 -42 15 0 25 -6 25 -15 0 -16 43 -31 60 -20 5 3 7 11 4 17 -4 7 -2 8 4
4 6 -4 8 -14 5 -24 -5 -14 -3 -14 9 2 14 18 15 18 37 0 25 -22 71 -26 71 -7 0
7 6 13 13 14 61 5 89 5 93 -2 2 -4 0 -10 -6 -14 -17 -11 -11 -20 14 -20 13 0
22 3 19 8 -2 4 3 7 12 7 9 0 13 5 9 11 -7 11 12 29 31 29 6 0 3 -4 -5 -10 -8
-5 -11 -12 -8 -16 11 -10 117 -11 121 0 2 5 17 1 35 -8 25 -13 30 -13 26 -2
-3 9 4 15 23 19 33 6 51 -2 32 -14 -11 -7 -10 -9 3 -9 9 0 19 4 22 9 3 4 17 6
31 3 30 -5 34 14 4 23 -11 4 -18 9 -16 11 8 8 77 -31 77 -43 0 -7 5 -13 11
-13 6 0 9 7 6 15 -10 25 15 29 33 5 11 -15 22 -20 30 -15 9 5 11 4 6 -3 -4 -7
-1 -12 6 -12 15 1 50 25 49 34 -2 17 1 16 19 -5 19 -24 19 -24 20 -2 0 12 -5
24 -10 26 -6 3 -5 4 1 3 7 -1 31 -61 55 -133 76 -234 186 -411 349 -559 47
-43 85 -81 85 -86 0 -5 -20 -36 -45 -69 -94 -121 -242 -228 -381 -275 -206
-69 -458 -47 -619 55 -63 40 -169 126 -198 161 -33 38 -33 62 -7 195 11 55 23
159 27 231 5 113 4 134 -11 157 -23 35 -72 51 -113 37 -70 -25 -139 -174 -144
-313 -2 -37 -6 -56 -13 -53 -101 46 -188 76 -226 76 -57 0 -111 -27 -128 -63
-30 -62 17 -124 135 -179 85 -40 215 -78 265 -78 23 0 46 -18 121 -96 113
-118 197 -184 302 -234 113 -55 195 -72 344 -71 276 2 471 81 655 264 51 51
108 111 127 134 l34 42 90 -44 c134 -66 196 -80 355 -80 156 1 221 14 348 75
193 92 355 238 503 453 53 77 180 318 219 416 8 21 16 29 18 20 11 -32 46 -39
37 -6 -5 17 -4 19 4 7 6 -8 18 -16 28 -16 10 -1 26 -5 36 -9 9 -4 17 -3 17 3
0 6 -5 12 -12 14 -6 2 -8 10 -4 16 10 17 26 15 20 -3 -4 -10 0 -15 15 -15 12
0 21 -4 21 -10 0 -5 -5 -10 -11 -10 -5 0 -7 -4 -4 -10 3 -5 1 -10 -5 -10 -6 0
-8 -4 -5 -10 9 -15 25 -12 25 4 0 8 10 22 22 30 25 18 42 21 33 6 -3 -6 1 -7
9 -4 8 3 29 -4 46 -16 22 -16 28 -17 24 -6 -7 19 7 21 24 4 9 -9 16 -8 30 5
21 19 82 23 100 5 8 -8 15 -8 27 2 13 11 15 10 9 -3 -4 -12 -1 -14 14 -10 11
3 22 13 25 24 5 20 27 27 27 8 0 -5 4 -7 10 -4 6 3 10 4 10 0 0 -3 -10 -10
-23 -15 -20 -9 -20 -10 8 -8 17 0 38 -3 48 -7 20 -9 37 2 20 13 -18 12 8 37
39 37 14 0 30 -3 34 -7 4 -5 1 -8 -6 -8 -7 0 -10 -3 -7 -7 4 -3 -1 -12 -11
-20 -15 -11 -13 -12 13 -2 17 6 65 12 108 13 42 2 80 6 84 9 3 4 -1 7 -10 7
-10 0 -17 5 -17 10 0 14 13 13 29 -3 12 -12 101 -17 101 -5 0 3 14 13 31 22
21 11 29 12 26 3 -3 -7 5 -13 19 -13 13 -1 24 2 24 8 0 5 5 6 11 3 6 -4 8 -13
5 -20 -2 -7 2 -16 11 -19 11 -5 14 -2 9 9 -3 9 -2 14 2 11 5 -3 25 -1 45 4 29
6 37 5 37 -6 0 -24 78 -25 104 -1 21 18 42 22 50 8 8 -12 150 -10 159 3 5 6 7
2 4 -12 -3 -12 -1 -20 3 -17 5 3 27 6 49 7 27 1 41 6 41 15 0 7 5 13 10 13 6
0 10 -7 10 -16 0 -12 4 -14 13 -7 24 20 94 24 111 7 9 -8 16 -12 16 -8 0 5 5
3 12 -4 18 -18 38 -14 38 7 0 21 22 33 44 25 8 -3 17 -1 21 5 3 6 11 11 17 11
7 0 2 -9 -11 -21 -18 -17 -25 -19 -39 -8 -15 11 -15 11 -4 -1 16 -19 36 -21
195 -21 109 0 127 -2 117 -14 -9 -11 -7 -12 10 -8 11 3 23 10 27 16 3 6 1 7
-5 3 -14 -8 -15 3 -3 23 10 16 74 18 79 2 2 -6 12 -11 23 -11 10 0 19 -4 19
-10 0 -10 19 -6 56 12 23 11 64 -4 64 -23 0 -6 7 -3 16 5 18 19 30 20 40 4 4
-7 3 -8 -4 -4 -7 4 -12 1 -12 -10 0 -13 3 -14 15 -4 8 7 21 10 30 7 8 -4 17
-2 20 3 4 6 22 10 41 10 20 0 34 5 34 13 0 9 2 9 8 -1 5 -7 16 -10 25 -6 10 3
17 1 17 -5 0 -7 15 -9 44 -5 27 4 46 2 50 -5 4 -6 30 -11 57 -11 31 0 48 4 44
10 -9 15 22 12 38 -4 8 -8 19 -11 27 -6 10 6 10 9 -1 13 -8 3 5 4 29 2 23 -1
42 1 42 5 0 4 11 7 24 6 13 0 23 -3 21 -6 -2 -3 28 -6 66 -6 44 0 68 4 66 11
-7 17 61 16 94 -1 17 -8 37 -13 45 -10 8 3 14 1 14 -5 0 -5 11 -8 25 -6 36 5
32 21 -7 27 l-33 6 32 5 c18 3 36 2 40 -1 15 -13 65 -22 58 -10 -9 14 47 1 56
-13 4 -5 21 -7 38 -4 18 4 30 3 27 -2 -8 -13 18 -21 35 -10 11 7 11 9 -3 9
-10 0 -18 5 -18 11 0 6 9 9 20 6 11 -3 20 -1 20 3 0 5 23 7 52 5 28 -2 60 1
71 7 14 7 22 7 27 -3 7 -10 14 -10 37 0 20 8 37 9 54 2 24 -10 24 -10 -6 -11
-17 -1 -24 -4 -15 -7 8 -4 20 -13 26 -22 11 -13 16 -13 52 3 23 10 48 16 57
12 9 -3 14 -2 11 3 -4 5 18 9 46 9 29 -1 61 3 71 7 25 11 21 -10 -5 -24 -17
-9 -18 -10 -3 -5 46 15 68 17 61 5 -11 -17 46 -3 60 15 8 10 13 11 22 2 9 -9
12 -9 12 0 0 7 14 12 35 12 19 0 35 -5 35 -11 0 -5 5 -7 11 -3 6 3 15 0 20 -7
6 -10 9 -11 9 -1 0 7 13 12 30 12 17 0 30 -4 30 -10 0 -5 9 -10 20 -10 11 0
20 7 20 15 0 18 56 49 65 36 3 -5 -5 -11 -17 -13 -30 -4 -34 -24 -6 -31 29 -8
117 2 141 14 13 7 19 6 24 -6 4 -11 12 -15 27 -10 43 13 156 17 156 6 0 -6 9
-11 20 -11 11 0 20 4 20 9 0 5 20 11 44 12 24 2 42 1 39 -3 -2 -5 4 -8 14 -8
25 0 -19 -23 -88 -45 -85 -28 -129 -55 -129 -81 0 -30 4 -32 116 -60 213 -52
313 -132 412 -330 68 -135 144 -400 140 -489 -2 -63 24 -95 61 -75 15 8 19 28
24 127 8 143 24 210 83 330 122 249 334 426 567 474 99 20 110 26 105 59 -2
17 -20 28 -77 50 -100 39 -105 47 -27 46 37 -1 68 3 70 9 3 5 8 0 12 -13 6
-20 8 -21 18 -7 9 13 17 14 38 6 14 -5 28 -8 30 -6 14 14 106 20 173 11 65 -9
58 -9 150 5 44 6 85 18 91 25 13 16 25 8 18 -11 -9 -22 45 -25 66 -3 10 11 21
15 24 10 10 -16 74 -25 184 -26 83 -1 103 2 107 14 7 21 86 22 82 1 -1 -8 4
-16 11 -18 6 -3 12 3 12 12 0 13 5 16 23 11 12 -4 36 -9 52 -13 17 -3 34 -11
38 -17 5 -6 7 1 4 17 -2 15 0 27 4 27 5 0 9 -4 9 -8 0 -11 67 -32 75 -24 3 4
22 7 41 8 20 0 39 5 42 11 8 12 72 5 72 -7 0 -10 56 -7 66 3 4 4 1 7 -6 7 -10
0 -11 3 -3 11 8 8 17 7 34 -2 17 -9 24 -9 27 0 2 6 16 11 30 12 24 0 25 1 7 9
-19 8 -19 9 -1 9 16 1 17 4 8 13 -18 18 -15 45 7 67 12 12 22 16 29 9 6 -6 8
2 6 23 -2 18 -8 35 -12 38 -5 3 -11 14 -15 23 -7 20 -35 23 -163 19 -54 -2
-84 1 -89 9 -5 8 -12 7 -25 -5 -16 -15 -19 -15 -34 1 -15 15 -18 15 -29 1 -10
-12 -22 -14 -62 -7 -30 4 -58 4 -72 -3 -16 -7 -30 -7 -47 1 -17 7 -27 7 -34 0
-8 -8 -16 -7 -27 2 -12 10 -19 10 -27 2 -8 -8 -17 -8 -30 -1 -11 6 -27 8 -36
4 -25 -10 -321 -11 -315 -2 3 5 -3 4 -14 -1 -10 -6 -24 -8 -30 -4 -6 4 -51 6
-100 5 -48 -2 -126 -2 -173 -1 -47 1 -96 0 -110 -1 -99 -8 -160 -10 -352 -11
-119 -1 -224 1 -235 4 -48 16 -147 286 -168 462 -8 66 -27 94 -61 94 -39 0
-48 -33 -48 -180 -1 -132 -2 -137 -33 -200 -18 -36 -53 -91 -78 -123 l-46 -58
-70 2 c-38 1 -71 0 -74 -2 -2 -3 -163 -3 -357 -1 -194 2 -427 3 -518 2 -91 -1
-331 -1 -535 0 -203 0 -383 0 -400 -1 -16 -1 -61 -1 -100 0 -38 1 -88 1 -110
0 -94 -2 -795 -1 -960 2 -38 0 -76 4 -85 9 -8 4 -46 5 -83 1 -38 -4 -71 -3
-74 2 -3 5 -17 5 -32 1 -35 -10 -147 -14 -386 -12 -110 0 -238 1 -285 0 -47 0
-316 0 -599 -1 -351 -1 -517 2 -521 9 -4 7 -11 5 -20 -5 -17 -20 -47 -19 -54
3 -3 9 8 64 25 122 39 135 83 356 117 590 l27 185 65 12 c178 34 186 44 144
163 -40 113 -199 389 -232 401 -35 14 -62 5 -94 -28 -39 -42 -278 -443 -278
-467 0 -55 44 -79 173 -92 37 -4 69 -10 72 -13 5 -9 -31 -303 -51 -411 -24
-131 -59 -276 -93 -382 l-32 -97 -82 5 c-126 7 -631 6 -670 -1 -21 -4 -37 -3
-42 4 -3 6 -12 8 -18 4 -10 -6 -98 -6 -427 2 -52 2 -100 3 -106 4 -6 0 -28 28
-48 60 -40 66 -117 139 -171 165 -49 24 -128 35 -178 25 -153 -28 -251 -106
-302 -241 -20 -53 -44 -62 -68 -28 -12 17 -21 19 -53 14 -38 -6 -183 -8 -409
-6 -60 0 -128 0 -150 0 -22 0 -56 4 -77 7 -31 6 -37 12 -42 38 -8 46 -11 231
-4 243 7 10 2 762 -5 804 -2 13 0 45 5 70 4 24 5 52 2 60 -8 17 -7 98 1 182 4
32 2 65 -3 74 -7 12 -5 29 5 52 10 24 11 37 3 46 -7 9 -6 25 4 54 10 29 12 51
6 74 -7 25 -5 1494 1 1603 6 80 -6 722 -13 731 -5 7 -3 28 4 50 7 22 12 64 11
94 -4 78 -6 346 -5 485 0 22 1 67 1 100 0 33 0 69 0 80 0 11 2 205 5 430 6
578 6 648 3 1130 -1 237 1 438 5 447 5 10 4 20 -2 23 -6 4 -8 16 -4 28 9 27 7
110 -4 172 -5 28 -7 70 -5 95 8 105 8 1218 0 1248 -4 18 -4 38 0 45 7 10 11
86 13 222 0 34 -9 138 -16 178 -4 22 -3 37 3 37 6 0 9 33 8 83 -1 45 2 93 7
106 5 14 6 32 2 40 -4 9 -9 140 -10 291 -1 151 -4 319 -6 373 -2 54 -1 100 2
102 3 2 4 158 2 347 -1 188 -2 348 -2 353 1 16 3 293 3 510 0 110 1 236 1 280
0 44 -1 127 -3 185 -4 114 4 399 12 406 2 3 1 22 -3 44 -4 22 -4 40 0 40 8 0
10 42 8 135 0 28 -1 136 0 240 4 1139 4 1188 -8 1195 -9 6 -9 9 1 13 8 3 4 6
-9 6 -13 1 -20 -3 -17 -9z m-45 -40 c0 -5 -5 -10 -11 -10 -5 0 -7 5 -4 10 3 6
8 10 11 10 2 0 4 -4 4 -10z m-23 -66 c-3 -3 -12 -4 -19 -1 -8 3 -5 6 6 6 11 1
17 -2 13 -5z m-47 -418 c0 -3 -4 -8 -10 -11 -5 -3 -10 -1 -10 4 0 6 5 11 10
11 6 0 10 -2 10 -4z m-30 -136 c0 -5 -4 -10 -10 -10 -5 0 -10 5 -10 10 0 6 5
10 10 10 6 0 10 -4 10 -10z m82 -952 c-9 -9 -15 -9 -24 0 -9 9 -7 12 12 12 19
0 21 -3 12 -12z m-54 -4723 c-3 -3 -9 2 -12 12 -6 14 -5 15 5 6 7 -7 10 -15 7
-18z m-32 -404 c0 -11 -4 -17 -8 -15 -4 3 -8 12 -8 20 0 8 4 14 8 14 4 0 8 -9
8 -19z m59 -1901 c3 -6 -1 -7 -9 -4 -18 7 -21 14 -7 14 6 0 13 -4 16 -10z
m-40 -900 c3 -5 -3 -10 -14 -10 -12 0 -21 5 -21 10 0 6 6 10 14 10 8 0 18 -4
21 -10z m2 -1626 c-3 -3 -12 -4 -19 -1 -8 3 -5 6 6 6 11 1 17 -2 13 -5z m13
-1154 c8 -5 11 -12 7 -17 -5 -4 -11 -3 -15 3 -4 6 -14 14 -22 17 -13 5 -13 5
0 6 8 0 22 -3 30 -9z m3267 -78 c38 -56 96 -172 90 -179 -23 -22 -240 -52
-290 -39 -26 6 -25 6 60 140 47 74 91 132 97 130 6 -2 25 -26 43 -52z m5421
-1191 c12 -25 20 -46 18 -48 -11 -11 -213 -20 -222 -10 -4 3 14 39 40 79 26
40 56 99 68 131 l21 58 27 -83 c15 -46 36 -103 48 -127z m-7353 60 c22 -10 56
-35 75 -57 l34 -39 -190 -5 c-104 -3 -191 -4 -193 -3 -3 2 4 15 15 30 61 81
173 113 259 74z m3705 -165 c0 -3 -4 -8 -10 -11 -5 -3 -10 -1 -10 4 0 6 5 11
10 11 6 0 10 -2 10 -4z m-4933 -142 c-3 -3 -12 -4 -19 -1 -8 3 -5 6 6 6 11 1
17 -2 13 -5z m2267 -15 c-3 -5 -10 -7 -15 -3 -5 3 -7 10 -3 15 3 5 10 7 15 3
5 -3 7 -10 3 -15z m6926 0 c0 -11 -5 -19 -12 -17 -17 6 -19 38 -2 38 8 0 14
-9 14 -21z m-5130 1 c0 -5 -4 -10 -9 -10 -6 0 -13 5 -16 10 -3 6 1 10 9 10 9
0 16 -4 16 -10z m5987 -12 c-3 -8 -6 -5 -6 6 -1 11 2 17 5 13 3 -3 4 -12 1
-19z m-9359 3 c11 -7 11 -9 -1 -14 -9 -3 -18 1 -21 9 -6 16 2 18 22 5z m337
-8 c6 -17 7 -17 16 0 11 19 47 15 61 -6 7 -12 58 -19 58 -8 0 5 18 5 40 1 32
-6 40 -4 40 7 0 9 7 13 18 11 9 -2 16 -9 15 -14 -1 -6 7 -15 18 -22 16 -11 19
-9 19 8 0 14 7 20 21 20 16 0 20 -5 17 -18 -4 -14 1 -18 21 -20 20 -1 22 1 11
8 -19 12 -7 23 18 15 17 -5 22 -18 28 -72 8 -82 -2 -236 -22 -323 -17 -76 -63
-220 -71 -220 -14 0 -102 82 -156 146 -76 88 -148 208 -192 317 -37 94 -55
172 -33 147 7 -8 12 -14 12 -12 -3 5 40 50 47 51 4 1 10 -7 14 -16z m1132 11
c-3 -3 -12 -4 -19 -1 -8 3 -5 6 6 6 11 1 17 -2 13 -5z m1490 -16 c-3 -8 -6 -5
-6 6 -1 11 2 17 5 13 3 -3 4 -12 1 -19z m5130 7 c0 -8 -5 -11 -11 -8 -6 3 -8
3 -4 -2 4 -4 3 -14 -3 -21 -12 -15 -4 -34 14 -33 9 0 9 2 0 6 -22 8 5 43 34
43 21 0 23 -3 14 -14 -10 -12 -6 -14 23 -12 19 2 34 -1 33 -7 -1 -5 7 -10 18
-12 11 -1 42 -13 70 -27 l49 -25 -34 -8 c-87 -19 -258 -133 -355 -236 -97
-103 -193 -258 -227 -367 -7 -23 -15 -42 -18 -42 -4 0 -16 33 -29 73 -51 159
-141 319 -229 404 -50 49 -143 103 -220 128 l-53 17 75 33 c41 18 96 45 121
59 39 23 49 26 62 14 12 -9 15 -10 9 0 -4 6 -3 12 3 12 5 0 11 -6 13 -12 4
-10 10 -10 29 -1 l24 11 -29 11 c-16 6 -26 14 -23 17 2 3 20 -1 38 -9 23 -9
58 -12 106 -10 44 3 80 0 93 -7 15 -8 20 -8 16 -1 -5 7 1 11 14 11 12 0 19 -4
16 -8 -7 -11 74 -6 108 7 30 12 50 6 27 -8 -10 -7 -10 -9 1 -13 16 -7 42 10
51 32 4 11 7 10 12 -7 4 -13 15 -23 24 -23 9 0 21 -4 27 -9 11 -11 64 -3 64
10 0 5 -8 6 -17 2 -22 -7 25 31 47 40 8 3 15 6 16 6 0 1 1 -6 1 -14z m-6817
-5 c0 -5 -12 -10 -27 -9 -25 0 -26 1 -8 9 27 12 35 12 35 0z m280 1 c0 -18 33
-21 63 -6 39 19 40 19 27 -5 -11 -20 3 -30 15 -10 4 7 13 7 26 0 13 -7 25 -8
37 -1 15 9 14 10 -5 11 -13 0 -23 5 -23 10 0 11 6 12 38 4 12 -4 22 -13 22
-20 0 -11 7 -13 28 -8 15 4 32 9 37 13 11 6 55 2 70 -7 16 -10 85 -10 85 -1 0
5 5 9 11 9 5 0 8 -4 5 -8 -2 -4 4 -8 15 -8 10 0 19 3 19 7 0 4 9 9 20 12 13 3
20 0 20 -10 0 -9 -6 -13 -13 -10 -10 4 -13 -2 -10 -17 6 -30 -76 -193 -158
-316 -68 -102 -189 -234 -272 -299 -247 -190 -527 -225 -773 -97 -80 41 -78
38 -59 82 68 159 98 313 99 501 1 115 4 153 14 153 6 0 12 -4 12 -10 0 -5 10
-9 23 -9 17 1 18 2 4 6 -9 2 -15 9 -11 14 3 5 10 7 15 3 5 -3 42 -8 82 -11 65
-4 70 -3 52 10 -18 14 -15 15 30 9 27 -3 56 -11 63 -19 10 -10 10 -13 1 -13
-7 0 -10 -3 -6 -6 3 -3 15 -3 28 1 17 6 19 9 8 16 -11 6 -11 11 -1 21 9 9 12
9 12 0 0 -7 7 -12 15 -12 8 0 15 -4 15 -10 0 -5 -4 -10 -10 -10 -5 0 -10 -5
-10 -11 0 -8 4 -9 13 0 8 6 17 8 20 5 3 -4 13 1 22 10 18 17 40 22 30 6 -3 -5
7 -5 25 1 16 6 30 15 30 20 0 11 33 -1 42 -15 5 -7 13 -4 22 9 11 15 17 17 26
8 15 -14 3 -36 -13 -27 -7 4 -8 3 -4 -1 15 -17 42 -14 63 6 14 13 24 17 29 10
3 -6 1 -11 -6 -11 -7 0 -10 -2 -7 -5 3 -3 16 -2 28 3 15 6 19 11 12 16 -15 9
-16 26 -2 26 6 0 10 -4 10 -9z m370 -1 c0 -5 -7 -10 -15 -10 -8 0 -15 5 -15
10 0 6 7 10 15 10 8 0 15 -4 15 -10z m89 0 c-6 -5 -18 -6 -26 -3 -19 8 -16 11
13 11 17 0 22 -3 13 -8z m1506 0 c3 -5 2 -10 -4 -10 -5 0 -13 5 -16 10 -3 6
-2 10 4 10 5 0 13 -4 16 -10z m750 1 c-11 -11 -35 -15 -73 -13 -40 3 -16 17
35 20 33 2 45 0 38 -7z m135 -1 c0 -5 -19 -9 -42 -9 l-43 2 40 7 c22 4 41 8
43 9 1 0 2 -3 2 -9z m283 3 c-7 -2 -19 -2 -25 0 -7 3 -2 5 12 5 14 0 19 -2 13
-5z m520 -4 c-27 -11 -105 -11 -98 0 3 5 30 9 61 8 34 -1 49 -4 37 -8z m177 1
c0 -5 -4 -10 -9 -10 -6 0 -13 5 -16 10 -3 6 1 10 9 10 9 0 16 -4 16 -10z
m2415 0 c3 -5 2 -10 -4 -10 -5 0 -13 5 -16 10 -3 6 -2 10 4 10 5 0 13 -4 16
-10z m755 -6 c0 -2 -7 -4 -15 -4 -8 0 -15 4 -15 10 0 5 7 7 15 4 8 -4 15 -8
15 -10z m261 -2 c-7 -2 -18 1 -23 6 -8 8 -4 9 13 5 13 -4 18 -8 10 -11z
m-6260 -2 c11 0 18 -4 15 -8 -8 -13 -60 -6 -64 8 -3 9 1 11 12 7 10 -4 27 -7
37 -7z m446 4 c-3 -3 -12 -4 -19 -1 -8 3 -5 6 6 6 11 1 17 -2 13 -5z m3673 -4
c0 -5 -2 -10 -4 -10 -3 0 -8 5 -11 10 -3 6 -1 10 4 10 6 0 11 -4 11 -10z m103
3 c-7 -2 -19 -2 -25 0 -7 3 -2 5 12 5 14 0 19 -2 13 -5z m-636 -19 c-30 -16
-44 -14 -32 5 3 6 18 11 33 11 l27 -1 -28 -15z"/>
<path d="M9880 2800 c-13 -8 -12 -10 3 -10 9 0 17 5 17 10 0 12 -1 12 -20 0z"/>
<path d="M10098 2793 c7 -3 16 -2 19 1 4 3 -2 6 -13 5 -11 0 -14 -3 -6 -6z"/>
<path d="M3450 2799 c0 -5 5 -7 10 -4 6 3 10 8 10 11 0 2 -4 4 -10 4 -5 0 -10
-5 -10 -11z"/>
<path d="M3918 2793 c7 -3 16 -2 19 1 4 3 -2 6 -13 5 -11 0 -14 -3 -6 -6z"/>
<path d="M3865 2780 c-3 -5 -2 -10 4 -10 5 0 13 5 16 10 3 6 2 10 -4 10 -5 0
-13 -4 -16 -10z"/>
<path d="M1488 16613 c7 -3 16 -2 19 1 4 3 -2 6 -13 5 -11 0 -14 -3 -6 -6z"/>
<path d="M1435 16350 c3 -5 11 -10 16 -10 6 0 7 5 4 10 -3 6 -11 10 -16 10 -6
0 -7 -4 -4 -10z"/>
<path d="M13105 16250 c3 -5 8 -10 11 -10 2 0 4 5 4 10 0 6 -5 10 -11 10 -5 0
-7 -4 -4 -10z"/>
<path d="M12978 15903 c7 -3 16 -2 19 1 4 3 -2 6 -13 5 -11 0 -14 -3 -6 -6z"/>
<path d="M6927 15866 c-33 -50 -40 -111 -34 -309 3 -106 11 -210 16 -232 6
-22 15 -80 21 -130 15 -121 36 -183 66 -197 32 -15 71 3 84 38 16 41 11 200
-10 365 -41 304 -62 419 -84 451 -28 41 -40 44 -59 14z"/>
<path d="M7743 15680 c-69 -42 -97 -92 -217 -388 -149 -371 -147 -365 -135
-401 9 -27 44 -51 73 -51 29 0 66 44 104 123 63 129 233 576 239 628 11 90
-12 121 -64 89z"/>
<path d="M6226 15522 c-11 -11 -6 -93 8 -125 31 -73 345 -457 398 -487 50 -28
82 -21 97 22 15 42 -3 77 -126 247 -125 172 -249 299 -320 328 -28 11 -54 18
-57 15z"/>
<path d="M425 15500 c-3 -5 -1 -10 4 -10 6 0 11 5 11 10 0 6 -2 10 -4 10 -3 0
-8 -4 -11 -10z"/>
<path d="M1470 15460 c0 -5 5 -10 11 -10 5 0 7 5 4 10 -3 6 -8 10 -11 10 -2 0
-4 -4 -4 -10z"/>
<path d="M1416 14971 c-4 -6 -2 -11 3 -11 6 0 12 -17 13 -37 1 -37 1 -37 5 -6
5 36 -10 73 -21 54z"/>
<path d="M6660 14206 c0 -2 -18 -93 -40 -202 -35 -169 -85 -431 -157 -812 -8
-46 -17 -82 -18 -80 -2 2 -26 78 -55 170 -52 169 -135 397 -148 409 -7 6 -181
-7 -188 -13 -2 -2 -28 -89 -58 -193 -30 -105 -61 -208 -69 -229 l-13 -39 -23
127 c-19 110 -54 350 -76 525 l-7 53 -92 -7 c-50 -3 -95 -10 -99 -15 -9 -8 11
-204 44 -420 31 -208 127 -672 141 -685 2 -2 46 -6 98 -10 l96 -7 22 68 c12
38 47 150 77 249 31 99 58 187 61 195 3 8 45 -104 94 -250 48 -146 101 -292
117 -325 l29 -61 84 12 c47 7 89 12 94 11 5 -1 18 48 28 108 36 216 159 884
207 1130 28 137 48 252 45 254 -5 5 -163 40 -181 41 -7 0 -13 -2 -13 -4z"/>
<path d="M7158 14173 l-128 -4 6 -702 c3 -386 7 -712 10 -724 l4 -23 245 0
245 0 0 100 0 100 -92 0 c-51 0 -116 3 -144 6 l-52 7 -4 201 c-2 110 -2 204 1
208 3 4 52 10 109 14 l102 7 0 98 0 99 -110 0 -110 0 0 205 0 205 145 0 145 0
0 83 c0 45 -3 92 -6 105 -7 24 8 24 -366 15z"/>
<path d="M8000 14173 c-58 -10 -181 -46 -186 -55 -7 -11 -24 -1401 -17 -1408
3 -3 53 -5 111 -4 163 1 296 49 352 126 15 21 29 36 31 35 2 -1 3 0 2 2 -1 2
7 22 19 44 42 83 33 227 -18 303 -13 19 -22 40 -18 45 3 5 2 8 -3 7 -24 -8 -9
17 27 46 138 109 229 303 217 466 -17 238 -188 403 -414 399 -43 -1 -89 -4
-103 -6z m214 -223 c69 -42 100 -112 95 -212 -7 -135 -89 -251 -223 -317 -83
-41 -90 -40 -82 7 3 20 6 150 6 289 l0 252 33 4 c56 8 139 -3 171 -23z m-155
-810 c116 -33 94 -185 -31 -215 l-28 -7 0 116 c0 126 -1 124 59 106z"/>
<path d="M1466 13904 c-5 -14 -4 -15 9 -4 17 14 19 20 6 20 -5 0 -12 -7 -15
-16z"/>
<path d="M14120 13660 c0 -5 5 -10 10 -10 6 0 10 5 10 10 0 6 -4 10 -10 10 -5
0 -10 -4 -10 -10z"/>
<path d="M1475 13530 c-3 -5 -1 -10 4 -10 6 0 11 5 11 10 0 6 -2 10 -4 10 -3
0 -8 -4 -11 -10z"/>
<path d="M8289 13253 c-13 -16 -12 -17 4 -4 16 13 21 21 13 21 -2 0 -10 -8
-17 -17z"/>
<path d="M13980 13030 c0 -5 5 -10 10 -10 6 0 10 5 10 10 0 6 -4 10 -10 10 -5
0 -10 -4 -10 -10z"/>
<path d="M588 12873 c7 -3 16 -2 19 1 4 3 -2 6 -13 5 -11 0 -14 -3 -6 -6z"/>
<path d="M12800 12467 c0 -20 4 -38 9 -42 6 -3 7 10 4 32 -8 50 -13 55 -13 10z"/>
<path d="M13790 12050 c0 -13 11 -13 30 0 12 8 11 10 -7 10 -13 0 -23 -4 -23
-10z"/>
<path d="M6950 11345 c-118 -383 -214 -699 -213 -702 2 -7 162 -63 179 -63 6
0 25 48 43 108 18 59 38 112 44 117 7 6 13 24 13 40 1 17 6 41 12 55 l10 26
157 -3 c87 -1 159 -3 160 -5 1 -2 22 -104 45 -228 23 -124 43 -227 46 -229 2
-2 46 2 99 9 77 11 95 17 95 30 0 16 -11 84 -45 265 -7 39 -36 198 -64 355
-150 815 -165 898 -173 905 -1 1 -46 6 -98 9 l-95 7 -215 -696z m364 -187 l6
-28 -111 0 c-101 0 -110 2 -105 18 71 227 110 355 119 387 11 41 13 35 91
-377z"/>
<path d="M5630 12017 c0 -2 -20 -102 -44 -223 -25 -120 -72 -365 -106 -544
-52 -275 -70 -360 -70 -327 0 37 -184 573 -199 581 -7 4 -182 -12 -187 -16 -2
-2 -28 -89 -58 -193 -56 -194 -84 -278 -85 -259 -1 6 -12 76 -26 155 -22 130
-75 503 -75 530 0 8 -26 9 -87 4 -49 -4 -94 -8 -100 -8 -17 0 -17 -5 13 -239
35 -283 138 -825 163 -866 3 -6 49 -14 101 -17 l95 -7 53 163 c28 90 66 211
84 269 18 60 34 97 36 85 9 -47 173 -525 197 -579 l28 -58 66 6 c36 4 80 9 97
12 l31 6 17 106 c26 169 148 836 153 842 2 2 8 -2 13 -10 13 -21 12 -4 0 18
-8 13 2 81 39 272 27 140 48 256 45 259 -10 10 -194 46 -194 38z"/>
<path d="M8511 11573 c-138 -481 -182 -623 -191 -623 -7 0 -68 213 -174 612
-40 147 -75 270 -78 274 -11 11 -188 -37 -188 -51 0 -39 224 -857 302 -1105
l34 -105 96 -3 96 -3 25 68 c14 37 35 96 48 130 12 35 25 60 30 57 5 -3 6 1 3
9 -3 8 11 63 30 123 50 160 108 356 161 549 26 94 62 225 81 292 19 67 34 128
34 137 0 14 -61 37 -161 61 l-26 6 -122 -428z"/>
<path d="M6128 11983 l-128 -4 6 -697 c3 -383 7 -708 8 -722 l3 -25 246 -3
247 -2 0 100 0 100 -84 0 c-45 0 -110 3 -143 6 l-60 7 -6 201 c-3 110 -2 204
2 208 3 4 53 11 109 14 l102 7 0 99 0 98 -110 0 -110 0 0 205 0 205 146 0 145
0 -2 93 c-1 50 -4 98 -6 105 -5 12 -36 13 -365 5z"/>
<path d="M9174 11983 l-131 -4 4 -452 c2 -249 6 -575 9 -724 l6 -273 244 0
244 0 0 100 0 100 -84 0 c-45 0 -111 3 -145 6 l-61 7 0 207 0 207 68 6 c37 4
84 7 105 7 l37 0 0 100 0 100 -110 0 -110 0 0 205 0 205 145 0 146 0 -3 103
-3 102 -115 0 c-63 1 -174 -1 -246 -2z"/>
<path d="M635 11820 c-3 -6 1 -7 9 -4 18 7 21 14 7 14 -6 0 -13 -4 -16 -10z"/>
<path d="M1460 11749 c0 -5 5 -7 10 -4 6 3 10 8 10 11 0 2 -4 4 -10 4 -5 0
-10 -5 -10 -11z"/>
<path d="M13440 11655 c0 -8 2 -15 4 -15 2 0 6 7 10 15 3 8 1 15 -4 15 -6 0
-10 -7 -10 -15z"/>
<path d="M200 11489 c0 -5 5 -7 10 -4 6 3 10 8 10 11 0 2 -4 4 -10 4 -5 0 -10
-5 -10 -11z"/>
<path d="M13740 11408 c-14 -6 -20 -12 -13 -15 6 -2 24 3 40 11 32 17 11 20
-27 4z"/>
<path d="M13256 11209 c-4 -22 0 -38 16 -60 12 -16 26 -29 31 -29 6 0 15 -7
22 -17 17 -23 36 -7 29 25 -9 37 -33 74 -44 67 -6 -4 -10 -11 -10 -16 0 -6 5
-7 10 -4 6 3 10 1 10 -4 0 -6 -7 -11 -15 -11 -13 0 -20 23 -16 56 1 7 -5 14
-13 17 -9 4 -16 -4 -20 -24z"/>
<path d="M13335 10570 c3 -5 8 -10 11 -10 2 0 4 5 4 10 0 6 -5 10 -11 10 -5 0
-7 -4 -4 -10z"/>
<path d="M400 10549 c0 -5 5 -7 10 -4 6 3 10 8 10 11 0 2 -4 4 -10 4 -5 0 -10
-5 -10 -11z"/>
<path d="M1420 10348 c0 -4 7 -8 15 -8 8 0 15 4 15 8 0 5 -7 9 -15 9 -8 0 -15
-4 -15 -9z"/>
<path d="M12744 10299 c-19 -22 -19 -22 4 -8 12 8 22 17 22 21 0 12 -6 9 -26
-13z"/>
<path d="M13288 10153 c7 -3 16 -2 19 1 4 3 -2 6 -13 5 -11 0 -14 -3 -6 -6z"/>
<path d="M6100 9630 c0 -5 7 -10 15 -10 13 0 15 -20 15 -120 0 -100 -2 -120
-15 -120 -8 0 -15 -4 -15 -10 0 -6 27 -10 60 -10 33 0 60 4 60 10 0 6 -6 10
-14 10 -17 0 -26 22 -26 61 0 27 3 29 38 29 21 0 48 7 60 16 51 35 52 113 2
139 -33 17 -180 21 -180 5z m157 -42 c33 -27 0 -88 -49 -88 -27 0 -28 2 -28
48 0 27 3 52 7 56 9 9 53 -1 70 -16z"/>
<path d="M6358 9623 c20 -14 22 -23 22 -123 0 -100 -2 -109 -22 -123 -22 -15
-20 -16 45 -16 64 -1 89 11 47 22 -16 4 -20 14 -20 46 0 49 19 55 45 14 38
-61 67 -83 107 -83 45 0 49 11 10 26 -16 6 -41 28 -57 48 l-28 37 21 22 c47
49 45 113 -4 136 -14 6 -62 11 -107 10 -77 0 -81 -1 -59 -16z m151 -38 c22
-21 6 -61 -30 -74 -17 -6 -35 -8 -40 -5 -10 6 -12 87 -3 97 9 9 56 -3 73 -18z"/>
<path d="M6694 9621 c-42 -26 -68 -91 -59 -150 15 -97 115 -143 208 -94 31 16
67 82 67 123 0 42 -36 107 -69 124 -41 22 -109 20 -147 -3z m109 -23 c31 -16
45 -37 52 -79 13 -77 -40 -138 -106 -124 -74 16 -88 167 -19 202 31 16 46 16
73 1z"/>
<path d="M6940 9630 c0 -5 6 -10 14 -10 22 0 26 -24 26 -150 0 -126 -4 -150
-26 -150 -8 0 -14 -7 -14 -16 0 -19 36 -10 64 17 17 16 20 36 24 159 4 110 8
140 18 140 8 0 14 5 14 10 0 6 -27 10 -60 10 -33 0 -60 -4 -60 -10z"/>
<path d="M7090 9631 c0 -5 9 -11 20 -14 18 -5 20 -14 20 -117 0 -103 -2 -112
-20 -117 -49 -13 -12 -23 85 -23 l105 0 0 35 c0 38 -7 43 -25 19 -7 -10 -27
-17 -51 -18 l-39 -1 -3 48 c-3 46 -3 47 27 47 17 0 31 -4 31 -10 0 -5 5 -10
10 -10 6 0 10 16 10 35 0 34 -12 46 -25 25 -3 -5 -17 -10 -31 -10 -22 0 -24 4
-24 46 l0 47 42 -6 c24 -3 44 -11 46 -16 8 -23 22 -10 22 19 l0 30 -100 0
c-55 0 -100 -4 -100 -9z"/>
<path d="M7402 9620 c-80 -49 -81 -184 -1 -243 33 -24 120 -25 155 -2 28 18
33 41 7 30 -105 -42 -186 18 -168 125 12 72 91 104 147 60 28 -22 38 -18 38
16 0 27 -17 34 -88 34 -40 0 -67 -6 -90 -20z"/>
<path d="M7606 9624 c-15 -40 1 -58 29 -30 8 7 24 13 37 12 22 -1 23 -5 26
-91 3 -103 -2 -135 -23 -135 -8 0 -15 -4 -15 -10 0 -6 28 -10 65 -10 63 0 86
12 45 23 -19 5 -20 14 -20 117 l0 113 33 -7 c17 -4 34 -11 35 -16 8 -22 22 -8
22 20 l0 30 -114 0 c-95 0 -115 -3 -120 -16z"/>
<path d="M7882 9528 c2 -15 10 -23 23 -23 30 0 27 39 -3 43 -20 3 -23 0 -20
-20z"/>
<path d="M1460 9490 c0 -5 5 -10 11 -10 5 0 7 5 4 10 -3 6 -8 10 -11 10 -2 0
-4 -4 -4 -10z"/>
<path d="M7887 9404 c-4 -4 -7 -16 -7 -26 0 -13 7 -18 26 -18 21 0 25 4 22 22
-3 23 -27 35 -41 22z"/>
<path d="M1418 9153 c7 -3 16 -2 19 1 4 3 -2 6 -13 5 -11 0 -14 -3 -6 -6z"/>
<path d="M13490 9090 c0 -11 7 -20 15 -20 13 0 14 4 5 20 -6 11 -13 20 -15 20
-3 0 -5 -9 -5 -20z"/>
<path d="M5860 9069 c-43 -9 -99 -68 -102 -106 -6 -117 38 -173 134 -173 104
0 167 102 124 203 -26 62 -85 91 -156 76z m64 -39 c50 -19 71 -102 41 -160
-29 -57 -81 -65 -126 -21 -23 24 -29 38 -29 75 0 90 45 133 114 106z"/>
<path d="M5545 9045 c-48 -47 -25 -102 52 -131 64 -23 75 -33 71 -63 -3 -23
-8 -26 -50 -29 -43 -3 -49 -1 -60 23 -14 31 -32 28 -36 -8 -5 -38 30 -52 121
-48 37 1 77 42 77 79 0 36 -29 63 -97 92 -42 18 -53 27 -53 45 0 39 69 49 94
14 17 -25 36 -17 36 16 0 28 -16 35 -81 35 -40 0 -55 -5 -74 -25z"/>
<path d="M6126 9048 c-79 -59 -71 -202 14 -245 39 -20 124 -16 151 6 29 24 21
35 -15 21 -94 -35 -171 32 -152 134 13 68 94 99 148 56 28 -22 38 -18 38 16 0
28 -17 34 -93 34 -47 -1 -69 -6 -91 -22z"/>
<path d="M6350 9061 c0 -5 7 -11 15 -15 12 -4 15 -27 15 -121 0 -96 -3 -115
-15 -115 -8 0 -15 -4 -15 -10 0 -6 27 -10 60 -10 33 0 60 4 60 10 0 6 -6 10
-14 10 -21 0 -26 23 -26 120 0 97 5 120 26 120 8 0 14 5 14 10 0 6 -27 10 -60
10 -33 0 -60 -4 -60 -9z"/>
<path d="M6616 9062 c-3 -6 -21 -51 -40 -100 -46 -119 -63 -152 -81 -152 -8 0
-15 -4 -15 -10 0 -5 25 -10 55 -10 30 0 55 5 55 10 0 6 -5 10 -11 10 -14 0 -5
56 12 77 6 7 26 13 45 13 30 0 34 -4 45 -40 11 -36 10 -42 -7 -55 -17 -13 -12
-14 51 -15 l70 0 -27 23 c-19 15 -41 57 -71 137 -40 108 -63 140 -81 112z m28
-94 c9 -35 8 -38 -18 -38 -23 0 -24 2 -13 30 14 36 23 38 31 8z"/>
<path d="M6800 9061 c0 -5 9 -11 20 -14 18 -5 20 -14 20 -111 0 -95 -2 -107
-22 -126 l-22 -20 102 0 c81 0 102 3 102 14 0 8 3 21 6 30 8 20 -13 21 -32 1
-9 -8 -31 -15 -50 -15 l-34 0 0 109 c0 101 2 110 23 124 21 15 19 16 -45 16
-38 1 -68 -3 -68 -8z"/>
<path d="M7140 9060 c0 -5 7 -10 15 -10 12 0 15 -15 15 -77 0 -110 -9 -155
-32 -161 -39 -10 -15 -22 45 -22 54 1 60 2 45 14 -14 11 -18 29 -18 90 0 42 4
76 9 76 5 0 21 -36 37 -80 28 -81 45 -107 63 -96 5 3 26 50 48 103 l38 97 7
-84 c7 -80 6 -86 -15 -102 -21 -17 -20 -18 48 -18 68 0 69 1 47 18 -19 15 -23
31 -31 115 -10 105 -7 127 15 127 8 0 14 5 14 11 0 6 -20 9 -50 7 l-51 -3 -30
-89 c-44 -131 -42 -130 -76 -35 -17 46 -34 94 -37 107 -6 19 -14 22 -57 22
-27 0 -49 -4 -49 -10z"/>
<path d="M7548 9053 c20 -14 22 -23 22 -123 0 -100 -2 -109 -22 -123 -22 -15
-16 -16 83 -16 l107 -1 4 30 c5 35 -6 48 -20 24 -7 -12 -23 -17 -53 -18 l-44
-1 -3 48 c-3 46 -3 47 27 47 17 0 31 -4 31 -10 0 -5 5 -10 10 -10 6 0 10 16
10 35 0 34 -12 46 -25 25 -3 -5 -17 -10 -31 -10 -22 0 -24 4 -24 45 0 45 0 45
34 45 19 0 42 -7 51 -17 14 -14 18 -14 26 -2 5 8 9 22 9 32 0 15 -12 17 -107
16 -101 0 -107 -1 -85 -16z"/>
<path d="M7780 9060 c0 -5 6 -10 14 -10 19 0 26 -32 26 -127 0 -90 -5 -113
-26 -113 -8 0 -14 -4 -14 -10 0 -6 38 -10 94 -10 80 0 98 3 127 23 43 29 59
60 59 117 0 57 -16 88 -59 117 -29 20 -47 23 -127 23 -56 0 -94 -4 -94 -10z
m203 -60 c30 -33 36 -80 16 -124 -14 -29 -70 -59 -102 -54 -21 3 -22 8 -25
112 l-3 109 43 -7 c30 -4 52 -16 71 -36z"/>
<path d="M8100 9061 c0 -5 9 -11 20 -14 18 -5 20 -14 20 -115 0 -102 -1 -111
-22 -125 -22 -15 -20 -16 40 -16 58 -1 80 10 47 23 -12 4 -15 27 -15 116 0 89
3 112 15 116 33 13 12 24 -45 24 -33 0 -60 -4 -60 -9z"/>
<path d="M8367 9043 c-8 -15 -29 -68 -47 -116 -19 -52 -43 -95 -56 -106 -13
-11 -24 -22 -24 -25 0 -3 25 -6 55 -6 30 0 55 5 55 10 0 6 -4 10 -10 10 -13 0
-13 33 2 65 9 20 18 25 45 25 30 0 36 -5 49 -37 15 -34 15 -38 -2 -50 -27 -19
-13 -24 57 -20 46 2 58 5 42 11 -22 8 -45 55 -97 196 -27 73 -48 86 -69 43z
m37 -90 c6 -20 4 -23 -19 -23 -22 0 -26 3 -20 18 4 9 10 25 13 36 5 20 14 11
26 -31z"/>
<path d="M1420 8756 c0 -9 30 -14 35 -6 4 6 -3 10 -14 10 -12 0 -21 -2 -21 -4z"/>
<path d="M12730 8461 c0 -5 -8 -12 -17 -14 -12 -3 -9 -5 8 -6 16 -1 29 5 33
14 3 9 0 15 -9 15 -8 0 -15 -4 -15 -9z"/>
<path d="M4159 8273 c-42 -99 -49 -232 -13 -267 20 -21 40 -10 68 36 l23 39 7
-39 c18 -113 105 -16 142 157 19 93 18 121 -5 121 -16 0 -19 -11 -24 -77 -5
-76 -33 -170 -61 -209 -14 -18 -15 -18 -26 11 -10 23 -10 47 0 105 21 136 23
150 11 150 -16 0 -29 -32 -40 -99 -12 -75 -55 -175 -73 -168 -9 3 -13 26 -12
73 1 61 13 109 49 197 5 12 2 17 -9 17 -10 0 -24 -18 -37 -47z"/>
<path d="M5433 8297 c-6 -6 -13 -20 -16 -29 -4 -12 -17 -18 -37 -18 -18 0 -29
-4 -25 -10 3 -5 17 -10 29 -10 l24 0 -14 -67 c-8 -36 -12 -74 -9 -84 9 -27 36
-32 65 -10 26 19 27 19 38 0 19 -31 38 -23 105 43 34 34 49 54 34 44 -16 -10
-29 -16 -30 -14 -37 73 -74 77 -109 9 -30 -59 -67 -87 -82 -62 -3 5 6 41 21
81 l27 72 33 -5 c41 -7 44 11 3 20 -20 4 -30 11 -30 24 0 23 -15 32 -27 16z
m127 -142 c0 -28 -24 -34 -34 -9 -8 20 1 34 20 34 8 0 14 -10 14 -25z m-11
-52 c2 -2 -2 -9 -9 -18 -16 -19 -40 -3 -40 26 0 19 1 19 49 -8z"/>
<path d="M6854 8275 c-8 -19 -21 -59 -28 -89 -17 -62 -42 -106 -62 -106 -11 0
-13 11 -8 54 8 65 -5 78 -47 47 -22 -17 -29 -18 -29 -7 0 24 -19 29 -45 12
-14 -9 -25 -12 -25 -6 0 24 -29 7 -40 -24 -6 -18 -21 -43 -35 -56 -25 -24 -51
-19 -40 9 4 9 11 31 15 49 7 28 5 33 -8 30 -16 -3 -25 -23 -37 -80 -4 -20 -11
-28 -27 -28 -18 0 -20 4 -15 38 3 20 8 45 12 56 6 14 4 17 -10 15 -10 -2 -23
-19 -30 -38 -11 -35 -51 -75 -65 -66 -5 3 -2 21 6 41 26 62 -4 97 -48 57 -19
-17 -19 -16 -12 12 4 17 11 40 15 53 14 36 11 54 -8 50 -15 -3 -34 -70 -59
-210 -9 -53 12 -49 27 5 11 42 34 77 51 77 6 0 7 -23 3 -54 -9 -67 4 -77 50
-41 26 19 35 22 35 11 0 -22 36 -39 58 -27 10 6 29 7 41 4 15 -4 30 2 45 16
l23 22 -4 -25 c-9 -45 15 -28 44 31 35 71 59 83 50 27 -3 -22 -8 -47 -12 -56
-5 -12 -3 -18 6 -18 8 0 24 23 36 50 13 29 28 50 37 50 18 0 19 -2 7 -52 -14
-61 17 -76 68 -32 24 20 31 22 31 10 0 -8 8 -20 18 -25 25 -13 60 11 78 55 10
23 21 34 35 34 18 0 20 -4 13 -32 -10 -49 -10 -60 2 -65 7 -2 22 37 38 99 14
57 29 113 32 126 5 17 2 22 -13 22 -16 0 -22 -12 -32 -64 -10 -52 -17 -65 -34
-70 -14 -4 -26 0 -34 11 -10 13 -15 14 -28 3 -11 -9 -12 -16 -4 -26 13 -16
-15 -74 -36 -74 -22 0 -19 34 9 104 35 90 41 126 21 126 -9 0 -22 -15 -31 -35z"/>
<path d="M8605 8258 c-8 -28 -15 -58 -15 -67 0 -12 -3 -12 -12 -3 -7 7 -20 12
-29 12 -19 0 -69 -54 -69 -75 0 -19 -64 -57 -84 -49 -25 10 -19 26 19 57 34
27 45 59 25 72 -18 11 -59 -23 -91 -75 -42 -68 -61 -67 -53 4 8 65 -5 78 -47
47 -22 -17 -29 -18 -29 -7 0 24 -19 29 -45 12 -14 -9 -25 -12 -25 -6 0 5 -7
10 -15 10 -13 0 -26 -33 -41 -108 -10 -51 13 -39 40 21 13 30 31 57 41 61 15
6 17 2 12 -31 -3 -21 -8 -46 -12 -55 -5 -13 -2 -18 8 -18 8 0 18 12 21 26 17
67 75 107 60 42 -11 -52 -10 -59 8 -71 14 -9 23 -7 46 10 28 21 29 21 45 2 21
-24 41 -24 82 1 28 17 34 18 39 5 7 -18 47 -20 65 -2 10 10 14 9 22 -5 13 -24
22 -23 57 7 30 25 31 25 37 5 8 -24 41 -26 67 -3 17 15 18 15 18 0 0 -19 31
-23 60 -7 13 7 21 7 25 0 13 -20 45 -9 71 25 15 20 24 38 21 41 -3 3 -15 -8
-28 -25 -13 -17 -29 -31 -36 -31 -15 0 -15 3 -4 51 6 28 4 41 -9 59 -17 23
-19 23 -44 7 -14 -10 -32 -30 -40 -45 -18 -35 -64 -78 -73 -68 -4 3 -2 27 5
51 15 55 15 65 1 65 -5 0 -17 -17 -25 -37 -28 -67 -84 -110 -84 -64 0 11 12
43 26 72 33 66 44 139 21 139 -11 0 -21 -18 -32 -52z m-35 -98 c5 -34 -1 -50
-26 -66 -20 -13 -27 -15 -33 -5 -12 18 -2 57 21 81 20 22 35 18 38 -10z m-150
5 c0 -8 -10 -19 -21 -26 -12 -6 -19 -7 -17 -2 3 4 8 16 11 26 8 21 27 23 27 2z
m413 -20 c-2 -27 -28 -65 -45 -65 -13 0 -9 39 8 71 18 36 40 33 37 -6z"/>
<path d="M9425 8300 c-13 -21 -45 -124 -45 -146 0 -27 -66 -88 -87 -80 -8 3
-17 6 -19 6 -15 0 2 30 31 53 34 27 45 59 26 72 -15 8 -59 -16 -76 -42 -9 -12
-25 -23 -36 -23 -17 0 -20 4 -15 24 3 14 2 27 -2 30 -15 9 -29 -9 -35 -48 -7
-41 -33 -79 -49 -70 -10 6 -7 39 7 97 6 20 4 27 -8 27 -18 0 -27 -21 -27 -60
0 -15 -9 -38 -19 -51 -18 -22 -20 -23 -27 -5 -4 10 -2 39 4 64 12 54 8 63 -15
39 -24 -24 -24 -115 -1 -130 13 -9 21 -7 37 7 19 17 21 17 36 2 20 -19 46 -8
70 28 9 13 27 26 40 29 22 4 25 1 25 -24 0 -51 66 -62 106 -18 20 23 34 24 34
4 0 -8 8 -19 18 -24 25 -13 60 11 78 54 9 21 22 34 38 37 22 4 24 3 15 -13 -6
-13 -6 -19 0 -19 6 0 16 10 22 22 11 21 12 20 26 -12 18 -45 10 -70 -15 -46
-10 9 -22 16 -25 16 -11 0 -8 -38 4 -45 17 -11 53 3 67 25 10 17 10 26 -4 51
-9 17 -13 41 -10 54 9 34 -10 40 -36 12 -30 -31 -65 -40 -77 -19 -8 14 -12 14
-25 3 -12 -10 -13 -17 -5 -27 13 -16 -15 -74 -36 -74 -22 0 -19 34 9 104 35
88 41 126 22 126 -8 0 -18 -4 -21 -10z m-115 -128 c0 -5 -9 -17 -20 -27 -22
-20 -26 -14 -10 16 11 19 30 26 30 11z"/>
<path d="M9803 8302 c-6 -4 -13 -17 -17 -29 -6 -17 -15 -23 -37 -23 -16 0 -29
-4 -29 -10 0 -5 12 -10 26 -10 25 0 25 -2 19 -42 -7 -44 -56 -108 -82 -108
-17 0 -16 7 3 64 18 51 13 69 -12 44 -10 -10 -17 -36 -18 -69 -1 -48 1 -54 20
-57 12 -2 31 8 46 23 26 26 26 26 30 4 5 -36 31 -46 63 -22 28 20 28 20 47 1
14 -14 27 -18 46 -13 27 6 106 75 97 84 -3 2 -20 -9 -38 -26 -30 -30 -46 -37
-74 -34 -23 2 -13 26 22 54 36 28 46 61 21 70 -22 8 -58 -16 -77 -51 -34 -64
-72 -91 -85 -59 -2 7 6 42 20 77 21 58 27 65 53 67 47 2 49 3 33 13 -8 5 -25
10 -37 10 -16 0 -20 5 -16 19 5 21 -7 33 -24 23z m117 -130 c0 -5 -9 -17 -20
-27 -22 -20 -26 -14 -10 16 11 19 30 26 30 11z"/>
<path d="M4567 8218 c-9 -45 -25 -90 -35 -101 -35 -39 -92 -54 -92 -24 0 6 16
25 35 43 38 34 44 58 19 68 -24 9 -62 -19 -82 -60 -15 -32 -15 -38 -1 -62 19
-34 69 -35 105 -1 l24 23 -2 -23 c-2 -13 2 -26 8 -28 7 -2 22 36 38 99 14 57
29 113 32 126 5 17 2 22 -13 22 -15 0 -22 -14 -36 -82z m-87 -46 c0 -5 -9 -17
-20 -27 -16 -14 -20 -15 -20 -4 0 16 19 39 32 39 4 0 8 -4 8 -8z"/>
<path d="M7946 8220 c-16 -74 -52 -140 -76 -140 -4 0 -7 25 -6 54 1 68 -13 86
-48 63 -13 -9 -37 -35 -53 -58 -30 -45 -58 -68 -69 -57 -3 4 2 30 11 58 9 28
14 54 11 57 -8 8 -36 -17 -36 -32 0 -17 -46 -72 -70 -85 -48 -25 -71 44 -30
88 26 27 30 27 23 2 -4 -14 0 -20 11 -20 13 0 17 7 14 27 -4 40 -31 40 -76 -1
-22 -20 -42 -36 -45 -36 -2 0 -8 11 -11 25 -9 36 -54 45 -78 15 -52 -64 -22
-154 41 -121 11 6 23 20 26 31 3 11 15 25 26 30 16 9 19 7 19 -14 0 -29 24
-56 49 -56 10 0 35 11 55 25 28 19 36 21 36 9 0 -21 28 -29 55 -14 20 11 26
10 40 -4 15 -14 19 -14 46 -1 16 9 29 11 29 6 0 -19 31 -20 49 -2 19 19 19 19
25 -2 9 -34 23 -10 47 83 39 155 39 150 19 150 -13 0 -21 -17 -34 -80z m-476
-65 c0 -16 -6 -25 -15 -25 -9 0 -15 9 -15 25 0 16 6 25 15 25 9 0 15 -9 15
-25z m372 -11 c-3 -29 -27 -64 -44 -64 -14 0 -9 54 8 78 21 30 40 22 36 -14z
m-382 -44 c0 -12 -26 -30 -33 -23 -4 3 -7 14 -7 24 0 12 6 16 20 12 11 -3 20
-9 20 -13z"/>
<path d="M7713 8275 c-3 -9 -3 -18 0 -21 9 -9 27 6 27 22 0 19 -19 18 -27 -1z"/>
<path d="M8703 8275 c-3 -9 -3 -18 0 -21 9 -9 27 6 27 22 0 19 -19 18 -27 -1z"/>
<path d="M9693 8275 c-3 -9 -3 -18 0 -21 9 -9 27 6 27 22 0 19 -19 18 -27 -1z"/>
<path d="M7317 8209 c-9 -6 -17 -17 -17 -25 0 -8 -7 -26 -16 -39 -9 -14 -12
-25 -8 -25 5 0 15 10 23 22 13 21 14 21 28 -12 14 -35 11 -60 -7 -60 -5 0 -10
7 -10 15 0 8 -7 15 -16 15 -10 0 -14 -7 -12 -22 4 -32 39 -34 67 -4 22 23 22
25 6 56 -9 18 -14 42 -11 55 7 28 -3 37 -27 24z"/>
<path d="M4645 8186 c-33 -33 -42 -73 -24 -105 19 -33 51 -38 88 -12 34 25 41
26 41 7 0 -8 9 -18 20 -21 24 -8 70 18 70 39 0 14 48 51 56 44 2 -3 -1 -19 -6
-38 -5 -18 -7 -37 -4 -42 9 -14 31 9 37 40 3 15 16 38 29 52 l23 25 3 -28 c2
-16 -1 -42 -7 -58 -17 -50 12 -34 37 20 12 27 29 52 38 55 13 5 15 -2 9 -49
-6 -46 -5 -56 10 -61 10 -4 28 2 44 14 28 20 28 20 44 1 9 -10 25 -19 35 -19
23 0 89 45 102 70 16 29 2 24 -41 -15 -44 -39 -51 -41 -69 -19 -11 13 -8 20
23 45 37 30 48 63 25 72 -25 8 -55 -16 -84 -66 -17 -29 -37 -53 -46 -55 -14
-3 -16 4 -11 51 7 66 -6 79 -48 48 -22 -17 -29 -18 -29 -7 0 24 -19 29 -45 12
-14 -9 -25 -12 -25 -6 0 17 -18 11 -44 -15 -30 -30 -46 -32 -46 -6 0 25 -24
43 -52 39 -16 -2 -31 -18 -48 -52 -30 -58 -70 -87 -94 -67 -24 20 -19 56 10
88 23 26 25 26 19 6 -5 -16 -2 -23 8 -23 20 0 30 29 16 46 -17 20 -37 17 -64
-10z m183 -34 c2 -14 -2 -22 -12 -22 -19 0 -29 17 -22 36 8 22 30 12 34 -14z
m382 13 c0 -8 -9 -19 -20 -25 -18 -10 -19 -9 -8 15 12 27 28 33 28 10z m-401
-57 c11 -3 10 -7 -3 -21 -22 -21 -36 -14 -36 20 0 19 3 23 13 16 6 -6 18 -12
26 -15z"/>
<path d="M7077 8190 c-33 -26 -52 -82 -38 -109 14 -26 45 -35 73 -20 30 15 78
60 78 73 0 5 -12 -2 -27 -16 -45 -42 -73 -53 -90 -35 -13 13 -11 18 20 41 41
32 52 53 36 72 -15 18 -22 18 -52 -6z m33 -18 c0 -5 -9 -17 -20 -27 -16 -14
-20 -15 -20 -4 0 16 19 39 32 39 4 0 8 -4 8 -8z"/>
<path d="M5804 8186 c-14 -10 -23 -11 -32 -4 -8 7 -16 7 -21 2 -9 -10 -31 -94
-31 -119 0 -29 23 -10 37 30 14 41 39 75 56 75 9 0 7 -23 -9 -84 -5 -20 -2
-26 10 -26 9 0 16 8 16 18 0 26 38 82 56 82 10 0 14 -6 11 -14 -3 -8 -9 -31
-13 -50 -8 -44 14 -57 55 -33 25 15 29 15 44 0 13 -14 21 -15 42 -5 25 12 26
11 19 -10 -24 -75 -33 -123 -24 -132 5 -5 12 -7 15 -4 6 5 50 190 62 256 6 34
-13 47 -23 15 -16 -52 -46 -103 -60 -103 -17 0 -16 9 2 83 5 21 3 27 -9 27 -9
0 -18 -12 -22 -30 -3 -16 -15 -41 -26 -55 -24 -29 -55 -35 -44 -7 4 9 9 33 12
53 6 45 -15 57 -50 29 -24 -19 -25 -19 -30 0 -6 24 -16 25 -43 6z"/>
<path d="M13222 8145 c0 -16 2 -22 5 -12 2 9 2 23 0 30 -3 6 -5 -1 -5 -18z"/>
<path d="M14065 8140 c3 -5 8 -10 11 -10 2 0 4 5 4 10 0 6 -5 10 -11 10 -5 0
-7 -4 -4 -10z"/>
<path d="M13210 8100 c0 -5 7 -7 15 -4 8 4 15 8 15 10 0 2 -7 4 -15 4 -8 0
-15 -4 -15 -10z"/>
<path d="M9983 8083 c-17 -6 -16 -33 1 -33 17 0 38 24 29 33 -7 8 -12 8 -30 0z"/>
<path d="M510 7950 c0 -5 5 -10 11 -10 5 0 7 5 4 10 -3 6 -8 10 -11 10 -2 0
-4 -4 -4 -10z"/>
<path d="M3693 7823 c-12 -2 -24 -11 -27 -20 -5 -13 0 -15 34 -9 22 3 40 3 40
-1 -1 -5 -16 -70 -34 -146 -33 -135 -33 -138 -12 -135 17 3 22 14 33 78 7 41
21 104 31 140 17 63 18 65 55 71 45 7 44 12 13 -123 -15 -62 -21 -107 -16
-112 9 -9 30 31 30 57 0 21 30 57 47 57 12 0 14 -6 8 -27 -11 -46 -11 -86 1
-90 6 -2 25 8 42 22 36 30 38 30 45 5 9 -33 42 -23 90 29 l46 49 11 -34 c14
-41 3 -66 -17 -39 -10 15 -16 16 -25 7 -18 -18 13 -46 41 -37 34 11 44 39 26
81 -8 20 -12 47 -9 60 7 27 2 29 -27 14 -10 -6 -19 -19 -19 -29 0 -22 -67
-101 -86 -101 -18 0 -18 17 1 70 8 24 13 46 9 49 -7 7 -44 -37 -44 -53 0 -15
-58 -72 -65 -64 -3 3 0 26 7 52 15 57 3 76 -37 58 -29 -13 -30 -9 -10 48 8 23
15 45 15 49 0 21 -130 37 -197 24z"/>
<path d="M8935 7790 c-12 -23 -22 -30 -46 -30 -18 0 -28 -4 -24 -10 3 -5 18
-10 32 -10 20 0 24 -4 18 -17 -3 -10 -9 -48 -12 -84 -5 -57 -3 -67 12 -73 24
-9 59 15 95 66 l30 40 10 -26 c20 -53 5 -91 -19 -48 -8 13 -12 14 -22 5 -10
-10 -9 -15 1 -28 17 -21 43 -19 65 5 18 20 18 23 2 67 -12 33 -14 49 -7 59 8
8 8 14 0 19 -14 8 -50 -23 -50 -43 0 -23 -60 -92 -81 -92 -25 0 -24 20 3 98
23 63 23 64 56 58 23 -3 32 -1 29 7 -2 7 -16 13 -30 15 -21 3 -27 9 -27 28 0
33 -16 30 -35 -6z"/>
<path d="M9595 7790 c-12 -23 -22 -30 -46 -30 -23 0 -30 4 -26 15 8 19 -13 31
-24 14 -5 -8 -9 -16 -9 -19 0 -8 52 -30 72 -30 35 0 -2 -106 -48 -136 -35 -23
-40 -11 -21 48 9 29 15 53 13 55 -8 9 -34 -11 -44 -33 -7 -14 -20 -24 -33 -24
-17 0 -20 4 -15 24 7 27 0 37 -20 29 -8 -3 -14 -16 -14 -29 0 -31 -31 -95 -44
-91 -12 4 -12 56 -1 100 6 21 4 27 -8 27 -17 0 -27 -21 -27 -59 0 -28 -24 -71
-41 -71 -12 0 -12 46 1 89 11 40 7 49 -14 32 -20 -17 -31 -93 -17 -120 14 -25
28 -27 52 -5 17 15 19 15 34 0 26 -26 32 -23 77 35 7 9 26 20 41 23 25 6 28 4
23 -12 -17 -52 34 -70 75 -26 l24 26 5 -23 c3 -12 13 -27 22 -33 14 -8 23 -5
46 17 26 25 29 26 28 8 -2 -38 16 -26 32 23 27 78 74 95 51 18 -12 -41 -8 -72
11 -72 14 0 90 70 90 83 0 6 -16 -4 -35 -23 -40 -39 -54 -34 -37 13 24 66 5
94 -43 63 -29 -19 -29 -20 -10 34 8 23 15 51 15 61 0 11 -7 19 -15 19 -8 0
-15 -9 -15 -19 0 -25 -9 -30 -43 -24 -20 4 -27 11 -27 29 0 33 -16 30 -35 -6z
m78 -46 c35 -13 -32 -154 -74 -154 -25 0 -24 20 3 98 23 62 34 71 71 56z"/>
<path d="M5070 7783 c-1 -61 -28 -148 -55 -170 -36 -32 -48 -29 -30 7 29 56
13 102 -28 83 -17 -8 -28 -8 -35 -1 -15 15 -32 1 -32 -25 0 -12 -11 -67 -25
-121 -29 -113 -31 -136 -11 -136 9 0 17 24 26 73 l12 72 49 1 c31 0 56 7 68
18 18 16 19 16 24 -6 10 -36 22 -12 50 102 32 126 33 130 7 130 -15 0 -20 -7
-20 -27z m-100 -125 c-1 -32 -24 -60 -44 -52 -20 8 -20 23 0 52 20 29 44 29
44 0z"/>
<path d="M5892 7743 c-14 -74 -25 -93 -54 -93 -15 0 -18 6 -16 28 2 18 -2 27
-12 27 -9 0 -17 -15 -22 -44 -8 -46 -34 -85 -50 -75 -10 6 -7 39 7 97 6 20 4
27 -8 27 -17 0 -27 -21 -27 -59 0 -28 -24 -71 -41 -71 -12 0 -12 46 1 89 11
41 6 51 -16 29 -23 -23 -25 -117 -2 -131 13 -9 21 -7 37 7 19 17 21 17 36 2
26 -26 32 -23 77 35 7 9 25 19 40 23 25 6 26 5 21 -34 -4 -24 -2 -40 5 -40 12
0 22 24 22 50 0 23 45 78 55 68 4 -4 3 -26 -3 -50 -16 -60 -1 -75 45 -47 l34
21 15 -21 c18 -25 35 -26 76 -5 16 9 27 11 24 5 -4 -6 -4 -11 1 -11 4 0 21 23
38 50 39 67 78 67 41 0 -28 -49 21 -82 59 -40 l18 20 23 -21 c17 -15 30 -20
48 -15 29 7 96 62 96 79 0 6 -12 -1 -27 -15 -45 -41 -67 -49 -89 -33 -18 14
-18 14 3 30 40 28 54 47 51 68 -2 11 -9 22 -16 25 -15 5 -82 -61 -82 -81 0
-19 -49 -59 -61 -51 -5 3 -2 18 6 34 22 42 19 70 -6 70 -14 0 -19 5 -16 14 3
8 0 19 -7 25 -17 14 -36 -5 -36 -37 0 -46 -73 -117 -107 -105 -21 8 -15 25 22
59 46 41 47 66 3 62 -24 -2 -38 -12 -54 -38 -29 -46 -61 -80 -75 -80 -7 0 -8
7 -4 18 4 9 9 34 12 54 7 45 -16 61 -47 33 -24 -22 -24 -15 -5 49 19 62 19 66
-3 66 -14 0 -20 -14 -30 -67z m208 -61 c0 -5 -9 -17 -20 -27 -16 -14 -20 -15
-20 -4 0 16 19 39 32 39 4 0 8 -4 8 -8z m268 -14 c-22 -33 -41 -36 -27 -4 7
14 19 26 27 26 13 0 13 -3 0 -22z"/>
<path d="M7800 7786 c0 -14 -9 -62 -20 -108 -11 -46 -20 -91 -20 -101 0 -33
24 -12 32 28 8 39 33 75 50 75 6 0 7 -23 3 -54 -8 -64 3 -76 44 -47 24 18 30
19 35 6 7 -18 47 -20 65 -2 11 10 14 10 18 0 3 -7 17 -13 33 -13 23 0 34 9 59
50 17 28 38 50 46 50 19 0 19 -11 -2 -48 -31 -53 9 -83 57 -44 23 18 24 18 42
0 27 -27 63 -17 110 30 50 48 39 55 -13 8 -24 -23 -47 -35 -56 -32 -8 3 -17 6
-19 6 -15 0 2 30 31 53 37 29 46 61 19 71 -22 8 -60 -20 -77 -57 -19 -38 -64
-83 -74 -73 -4 4 1 22 11 41 20 36 16 65 -9 65 -8 0 -15 9 -15 20 0 11 -6 20
-14 20 -19 0 -39 -27 -33 -44 6 -16 -47 -96 -63 -96 -5 0 -9 24 -7 54 3 68
-11 86 -48 62 -14 -9 -36 -34 -50 -56 -24 -38 -57 -65 -67 -54 -3 2 1 22 8 44
22 63 -5 92 -48 53 -19 -17 -19 -16 -12 12 4 17 11 40 15 53 14 37 11 52 -11
52 -15 0 -20 -7 -20 -24z m210 -130 c0 -30 -33 -72 -49 -62 -13 9 -7 38 15 74
17 27 34 21 34 -12z m290 26 c0 -5 -9 -17 -20 -27 -22 -20 -26 -14 -10 16 11
19 30 26 30 11z"/>
<path d="M4021 7786 c-9 -10 -9 -16 -1 -21 17 -10 37 12 24 25 -8 8 -15 6 -23
-4z"/>
<path d="M4347 7793 c-13 -12 -7 -33 8 -33 8 0 15 9 15 20 0 20 -11 26 -23 13z"/>
<path d="M1445 7730 c3 -5 11 -10 16 -10 6 0 7 5 4 10 -3 6 -11 10 -16 10 -6
0 -7 -4 -4 -10z"/>
<path d="M4437 7712 c-10 -10 -17 -25 -17 -33 0 -19 -77 -95 -87 -86 -3 4 -1
30 5 59 7 28 10 53 8 55 -19 19 -52 -72 -42 -113 10 -38 44 -30 93 23 24 25
46 44 49 41 2 -3 8 -22 11 -42 6 -39 -8 -49 -26 -18 -8 13 -12 14 -22 5 -10
-10 -9 -15 1 -28 17 -21 43 -19 65 5 18 20 18 23 2 67 -12 31 -14 50 -7 58 9
11 4 25 -10 25 -4 0 -14 -8 -23 -18z"/>
<path d="M7682 7718 c-7 -7 -12 -19 -12 -27 0 -8 -7 -23 -17 -33 -9 -10 -13
-21 -9 -25 4 -5 12 0 17 10 15 25 26 21 38 -15 14 -39 -2 -62 -22 -33 -18 24
-41 11 -27 -16 24 -44 89 -3 75 48 -4 15 -8 44 -10 63 -2 37 -14 47 -33 28z"/>
<path d="M8808 7719 c-10 -5 -18 -16 -18 -23 0 -12 -49 -53 -53 -44 -39 77
-75 77 -113 -1 -19 -39 -38 -60 -55 -61 -4 0 0 18 7 40 10 30 11 46 4 60 -12
22 -18 24 -40 10 -9 -5 -19 -5 -27 2 -8 6 -16 8 -20 4 -13 -13 -71 -271 -63
-280 12 -12 30 2 30 24 0 11 5 41 10 67 10 47 11 48 48 47 20 0 51 7 68 16 29
17 31 17 42 -1 18 -29 42 -23 83 22 23 25 42 38 50 34 7 -5 19 2 29 16 l18 23
13 -42 c14 -47 5 -67 -17 -38 -16 23 -39 9 -28 -17 9 -25 51 -21 69 7 15 22
15 28 1 61 -9 20 -13 48 -10 61 7 26 -1 29 -28 13z m-108 -54 c0 -28 -24 -34
-34 -9 -8 20 1 34 20 34 8 0 14 -10 14 -25z m-140 -4 c0 -29 -32 -63 -52 -56
-18 7 -15 29 10 58 20 23 42 22 42 -2z m129 -47 c2 -2 -2 -10 -9 -19 -10 -12
-16 -13 -26 -4 -23 19 -17 41 9 33 12 -3 24 -8 26 -10z"/>
<path d="M10400 7715 c-7 -8 -10 -21 -7 -28 6 -17 -45 -92 -63 -92 -15 0 -16
13 -4 73 5 25 3 32 -9 32 -11 0 -18 -13 -22 -37 -9 -55 -13 -63 -30 -70 -30
-11 -39 12 -22 61 18 52 7 60 -29 21 -27 -29 -44 -32 -44 -7 0 44 -59 57 -85
19 -26 -40 -29 -80 -7 -107 18 -22 22 -23 47 -12 15 7 29 21 32 32 3 10 16 27
30 36 26 16 26 16 21 -11 -8 -40 22 -68 58 -55 17 7 31 7 38 1 7 -6 18 -6 26
-1 8 5 17 7 21 4 4 -2 21 18 38 46 17 27 38 50 46 50 19 0 19 -11 -2 -48 -37
-64 18 -85 73 -26 48 50 42 66 -6 19 -46 -44 -63 -40 -36 10 20 36 16 65 -9
65 -8 0 -15 9 -15 20 0 23 -22 26 -40 5z m-256 -41 c9 -25 7 -34 -8 -34 -19 0
-29 17 -22 35 7 20 22 19 30 -1z m-14 -70 c0 -14 -25 -26 -34 -17 -3 4 -6 17
-6 30 0 21 2 22 20 11 11 -7 20 -18 20 -24z"/>
<path d="M4666 7699 c-73 -58 -74 -161 -1 -123 19 10 31 11 33 5 7 -21 47 -10
69 19 36 45 39 69 4 28 -42 -50 -55 -49 -48 3 6 43 -6 89 -21 89 -5 0 -21 -9
-36 -21z m34 -45 c0 -26 -35 -68 -50 -59 -5 3 -5 18 0 36 17 59 50 75 50 23z"/>
<path d="M5151 7694 c-35 -29 -55 -87 -40 -115 10 -19 30 -17 58 5 11 8 15 8
18 -1 6 -18 48 -16 63 2 11 14 14 13 27 -5 18 -26 47 -25 84 1 l29 21 19 -23
c13 -17 24 -20 44 -15 30 7 97 62 97 79 0 6 -12 -1 -27 -15 -35 -32 -71 -51
-83 -43 -18 11 -11 28 25 61 40 36 45 59 14 67 -24 6 -63 -28 -90 -78 -21 -40
-63 -63 -84 -45 -23 19 -18 55 11 87 23 26 25 26 19 6 -5 -16 -2 -23 8 -23 22
0 30 31 13 49 -23 22 -62 0 -83 -46 -35 -77 -69 -97 -58 -35 6 39 -7 92 -24
92 -5 0 -23 -12 -40 -26z m43 -43 c-7 -28 -32 -61 -46 -61 -14 0 -9 54 7 77
21 30 47 20 39 -16z m276 31 c0 -5 -9 -17 -20 -27 -16 -14 -20 -15 -20 -4 0
16 19 39 32 39 4 0 8 -4 8 -8z"/>
<path d="M7115 7696 c-31 -31 -41 -70 -26 -102 16 -35 39 -40 81 -18 35 19 36
19 50 2 14 -17 18 -17 42 -4 16 9 30 11 33 5 10 -14 37 -11 58 9 19 16 20 16
14 0 -8 -21 7 -32 20 -15 6 6 13 26 17 42 8 31 33 65 48 65 6 0 7 -23 3 -55
-6 -47 -5 -56 10 -62 13 -4 29 5 57 35 21 23 38 47 38 54 0 7 -14 -4 -31 -25
-17 -20 -35 -37 -40 -37 -5 0 -6 23 -3 55 6 46 4 56 -10 61 -10 4 -25 -1 -36
-11 -12 -11 -20 -13 -20 -7 0 24 -28 11 -33 -16 -7 -34 -43 -82 -63 -82 -11 0
-13 7 -8 27 11 41 9 82 -4 95 -18 18 -60 -10 -89 -59 -30 -51 -77 -81 -99 -62
-22 18 -17 55 12 86 23 26 25 26 19 6 -5 -16 -2 -23 8 -23 20 0 30 29 16 46
-17 20 -37 17 -64 -10z m180 -16 c11 -18 -6 -70 -26 -81 -28 -15 -35 11 -14
55 18 37 29 44 40 26z"/>
<path d="M6550 7686 c-33 -88 -17 -142 36 -117 24 10 25 10 18 -11 -24 -75
-33 -123 -24 -132 5 -5 12 -7 15 -4 6 6 50 191 62 257 8 45 -18 38 -30 -8 -11
-44 -36 -81 -53 -81 -17 0 -18 23 -2 67 9 25 9 36 0 45 -8 8 -14 5 -22 -16z"/>
<path d="M6701 7684 c-23 -30 -28 -93 -9 -112 22 -22 46 -13 79 28 39 48 49
50 49 10 0 -39 33 -55 68 -34 12 8 22 10 22 4 0 -20 42 -9 66 18 44 46 49 69
7 30 -21 -21 -43 -38 -47 -38 -8 0 -4 41 10 89 6 19 4 22 -12 19 -14 -2 -22
-17 -29 -53 -9 -41 -15 -51 -34 -53 -22 -4 -23 -1 -17 36 3 22 9 47 12 56 10
25 -16 19 -38 -9 -21 -27 -38 -32 -38 -12 0 18 -32 47 -53 47 -8 0 -25 -12
-36 -26z m59 -19 c0 -28 -24 -34 -34 -9 -8 20 1 34 20 34 8 0 14 -10 14 -25z
m-11 -51 c3 -3 -3 -12 -12 -22 -16 -15 -19 -15 -27 -2 -17 27 -12 42 13 34 12
-3 24 -8 26 -10z"/>
<path d="M9936 7698 c-18 -59 -24 -104 -15 -120 11 -21 39 -24 57 -6 15 15 15
5 -3 -62 -18 -68 -19 -90 -2 -90 8 0 19 33 31 93 11 50 25 110 33 132 7 21 11
45 8 53 -8 22 -28 9 -31 -21 -3 -29 -39 -87 -54 -87 -18 0 -19 19 -5 60 8 23
12 46 9 51 -8 13 -24 11 -28 -3z"/>
<path d="M1450 7620 c0 -5 5 -10 11 -10 5 0 7 5 4 10 -3 6 -8 10 -11 10 -2 0
-4 -4 -4 -10z"/>
<path d="M28 7313 c6 -2 18 -2 25 0 6 3 1 5 -13 5 -14 0 -19 -2 -12 -5z"/>
<path d="M6625 7308 c-2 -7 -6 -34 -10 -59 -3 -26 -15 -64 -25 -85 -11 -21
-20 -50 -20 -64 0 -14 -7 -50 -15 -80 -19 -71 -19 -109 0 -116 24 -10 65 24
86 71 22 49 18 84 -12 111 -31 28 -24 52 21 65 22 7 43 10 46 7 3 -4 -4 -24
-16 -47 -29 -58 -10 -51 25 9 30 52 64 70 50 28 -4 -13 -8 -36 -9 -53 -1 -40
28 -45 64 -10 26 25 28 26 33 6 7 -27 35 -27 63 0 l22 21 7 -21 c10 -32 49
-37 90 -11 l35 22 0 -22 c0 -18 3 -20 14 -11 8 7 17 24 21 39 8 35 32 72 46
72 8 0 9 -18 4 -55 -8 -64 7 -79 52 -50 18 12 28 14 31 7 5 -17 47 -15 63 4
12 14 14 14 21 -5 11 -32 27 -26 84 32 l51 54 12 -34 c15 -40 4 -65 -16 -38
-10 14 -16 16 -24 8 -26 -26 16 -57 46 -35 32 23 36 40 20 72 -9 18 -14 42
-11 55 3 13 1 27 -4 30 -15 9 -40 -13 -40 -34 0 -22 -67 -101 -86 -101 -21 0
-17 21 16 92 32 67 40 138 16 138 -9 0 -20 -25 -31 -65 -13 -46 -21 -63 -29
-55 -25 25 -75 -7 -90 -56 -7 -24 -43 -60 -52 -52 -3 3 0 25 6 48 13 47 -1 76
-29 64 -9 -3 -27 -7 -40 -8 -18 -1 -27 -9 -32 -29 -8 -28 -18 -39 -67 -74 -21
-15 -24 -15 -40 1 -15 15 -14 18 21 47 36 29 48 61 27 74 -15 9 -68 -22 -75
-45 -9 -29 -54 -80 -71 -80 -18 0 -18 17 1 70 8 24 14 45 12 47 -12 11 -36
-13 -46 -47 -12 -39 -56 -84 -72 -74 -5 3 -2 18 6 34 21 41 19 70 -4 70 -12 0
-18 7 -17 18 2 27 -38 22 -42 -5 -3 -22 -9 -25 -73 -37 -15 -3 -15 2 2 63 10
36 19 72 19 78 0 17 -29 17 -35 1z m689 -144 c5 -20 1 -33 -15 -50 -30 -32
-49 -31 -49 5 0 30 36 85 50 76 4 -3 11 -17 14 -31z m-314 17 c0 -5 -7 -17
-16 -25 -16 -17 -28 -21 -21 -8 2 4 7 15 10 25 7 18 27 24 27 8z m-379 -122
c13 -26 5 -76 -18 -101 -34 -38 -41 -16 -21 71 13 56 21 62 39 30z"/>
<path d="M6881 7286 c-9 -10 -9 -16 -1 -21 17 -10 37 12 24 25 -8 8 -15 6 -23
-4z"/>
<path d="M13565 7220 c-3 -5 -1 -10 4 -10 6 0 11 5 11 10 0 6 -2 10 -4 10 -3
0 -8 -4 -11 -10z"/>
<path d="M7521 7086 c-7 -9 -8 -17 -2 -20 13 -9 43 4 38 17 -5 17 -23 19 -36
3z"/>
<path d="M5484 6822 c-12 -7 -74 -252 -74 -290 0 -15 6 -22 19 -22 15 0 19 11
24 68 3 37 11 92 18 122 l13 55 8 -85 c13 -127 18 -151 34 -157 8 -3 17 -3 20
0 3 3 14 48 25 100 16 78 24 101 49 126 33 33 40 78 14 88 -25 10 -48 -10 -60
-52 -6 -22 -16 -41 -23 -43 -10 -3 -10 -6 -2 -12 9 -5 9 -23 0 -73 -7 -36 -15
-64 -19 -62 -4 2 -10 55 -13 117 -7 112 -13 133 -33 120z m132 -60 c-20 -20
-22 -1 -4 31 11 20 12 21 16 3 2 -10 -3 -26 -12 -34z"/>
<path d="M6135 6768 c-8 -28 -15 -58 -15 -67 0 -12 -3 -12 -12 -3 -7 7 -20 12
-29 12 -19 0 -69 -54 -69 -74 0 -13 -31 -46 -43 -46 -4 0 -6 25 -4 54 3 69
-11 86 -48 62 -78 -51 -87 -170 -10 -130 19 10 31 11 33 5 5 -16 38 -13 53 5
11 14 13 14 21 0 11 -19 49 -21 66 -4 9 9 15 8 26 -7 13 -18 15 -18 39 -2 14
9 39 33 54 52 15 19 31 35 35 35 3 0 11 -14 17 -32 14 -40 -2 -62 -23 -32 -12
15 -17 16 -27 7 -10 -10 -9 -15 1 -28 31 -37 88 3 75 52 -4 15 -8 43 -10 61
-1 18 -5 35 -8 39 -9 9 -37 -17 -37 -35 0 -21 -68 -102 -86 -102 -21 0 -17 32
12 91 33 66 44 139 21 139 -11 0 -21 -18 -32 -52z m-195 -114 c0 -27 -35 -68
-51 -59 -11 8 -4 39 17 73 18 27 34 20 34 -14z m163 9 c3 -19 -2 -33 -19 -50
-42 -42 -61 -21 -37 40 18 45 48 50 56 10z"/>
<path d="M8093 6807 c-6 -6 -13 -20 -16 -29 -4 -12 -17 -18 -39 -18 -34 0 -29
-16 8 -22 20 -3 21 -5 9 -51 -11 -45 -48 -97 -68 -97 -5 0 -6 21 -2 48 4 33 2
53 -8 66 -14 19 -16 19 -41 3 -14 -10 -37 -35 -51 -57 -29 -46 -66 -73 -88
-64 -25 9 -29 34 -10 72 21 41 45 55 36 21 -4 -16 -2 -20 8 -17 21 7 23 44 3
52 -22 9 -62 -18 -76 -52 -15 -35 -48 -72 -65 -72 -17 0 -16 18 2 70 18 52 18
50 0 50 -37 0 -48 -131 -12 -138 11 -2 29 6 42 18 l23 22 7 -21 c9 -31 51 -38
83 -14 26 20 28 20 42 1 14 -17 17 -17 45 -3 19 11 31 12 33 6 6 -19 47 -12
61 11 l13 22 15 -27 c17 -34 33 -34 71 -2 29 24 30 24 35 5 7 -26 39 -26 62 0
18 20 18 20 29 -2 6 -13 20 -24 30 -26 19 -4 66 34 66 53 0 7 11 17 25 23 29
13 32 2 15 -43 -9 -23 -8 -26 7 -23 10 2 21 18 26 38 9 36 33 70 49 70 6 0 7
-23 3 -55 -6 -46 -5 -56 10 -61 19 -7 91 56 101 90 6 18 7 18 20 -5 16 -28 18
-69 4 -69 -5 0 -13 8 -19 18 -8 13 -12 14 -22 5 -10 -10 -9 -15 1 -28 17 -21
43 -19 65 5 18 20 18 23 2 67 -12 33 -14 49 -7 59 8 8 8 14 0 19 -14 9 -50
-23 -50 -44 0 -19 -57 -91 -71 -91 -5 0 -7 23 -3 54 7 62 -4 76 -41 52 -14 -9
-25 -12 -25 -6 0 5 -7 10 -15 10 -8 0 -15 -6 -15 -13 0 -11 -40 -43 -43 -35
-35 73 -74 76 -109 9 -21 -42 -48 -71 -65 -71 -16 0 -16 6 2 65 8 27 13 51 11
52 -10 10 -35 -12 -41 -35 -7 -31 -52 -82 -71 -82 -24 0 -24 18 3 90 l27 72
33 -5 c41 -7 44 11 3 20 -20 4 -30 11 -30 24 0 23 -15 32 -27 16z m-133 -153
c0 -31 -39 -72 -50 -54 -14 23 22 96 41 84 5 -3 9 -16 9 -30z m360 11 c0 -28
-24 -34 -34 -9 -8 20 1 34 20 34 8 0 14 -10 14 -25z m-11 -51 c2 -2 -2 -10 -9
-19 -10 -12 -16 -13 -26 -4 -23 19 -17 41 9 33 12 -3 24 -8 26 -10z"/>
<path d="M7615 6798 c-2 -7 -9 -44 -16 -83 -10 -52 -20 -77 -40 -97 -37 -37
-54 -36 -34 2 29 56 13 102 -28 83 -17 -8 -28 -8 -35 -1 -15 15 -32 1 -32 -27
0 -13 -12 -37 -26 -54 -28 -34 -58 -42 -50 -13 16 57 16 79 1 92 -12 10 -19 9
-39 -4 -23 -15 -26 -15 -35 1 -9 17 -12 16 -40 -5 -25 -18 -31 -19 -31 -7 0
21 -7 19 -42 -10 -30 -25 -48 -25 -48 -1 0 22 -28 39 -53 32 -15 -3 -30 -21
-43 -47 -26 -58 -64 -85 -94 -69 -18 10 -21 17 -16 43 6 32 32 67 49 67 5 0 4
-7 -3 -15 -9 -11 -10 -19 -3 -26 7 -7 14 -4 23 6 19 23 0 51 -31 47 -46 -5
-79 -74 -57 -120 18 -38 57 -40 97 -7 22 19 31 23 31 12 0 -8 7 -20 15 -27 21
-17 61 1 76 34 6 13 22 29 35 35 23 10 23 10 17 -35 -5 -37 -3 -43 9 -39 9 4
18 18 21 33 7 35 47 86 58 75 5 -5 4 -24 -1 -43 -14 -49 -13 -70 4 -64 8 3 17
20 20 38 4 18 18 44 32 57 l26 24 -4 -60 c-4 -71 12 -81 60 -40 l30 25 -23
-90 c-21 -82 -20 -110 3 -96 5 3 14 36 22 74 l13 69 43 -2 c31 -3 50 2 68 16
24 19 24 18 30 -3 3 -14 9 -19 14 -13 10 11 62 205 62 229 0 19 -29 22 -35 4z
m-517 -136 c2 -14 -2 -22 -12 -22 -19 0 -29 17 -22 36 8 22 30 12 34 -14z
m412 2 c0 -12 -15 -49 -25 -62 -1 -1 -10 0 -19 4 -20 8 -20 23 0 52 18 25 44
29 44 6z m-431 -66 c-13 -23 -39 -12 -39 17 0 21 2 22 24 12 19 -9 22 -15 15
-29z"/>
<path d="M7701 6786 c-9 -10 -9 -16 -1 -21 17 -10 37 12 24 25 -8 8 -15 6 -23
-4z"/>
<path d="M8191 6786 c-9 -10 -9 -16 -1 -21 17 -10 37 12 24 25 -8 8 -15 6 -23
-4z"/>
<path d="M13715 6780 c3 -5 11 -10 16 -10 6 0 7 5 4 10 -3 6 -11 10 -16 10 -6
0 -7 -4 -4 -10z"/>
<path d="M5654 6702 c-34 -22 -46 -110 -19 -132 21 -17 61 1 77 35 6 13 19 27
28 30 10 3 26 15 36 27 l19 21 -32 -17 c-40 -20 -43 -20 -43 2 0 34 -38 53
-66 34z m44 -40 c2 -14 -2 -22 -12 -22 -19 0 -29 17 -22 36 8 22 30 12 34 -14z
m-8 -54 c0 -11 -36 -28 -44 -21 -3 3 -6 16 -6 29 0 20 2 21 25 11 14 -7 25
-15 25 -19z"/>
<path d="M6567 6704 c-4 -4 -19 -7 -34 -8 -23 -1 -28 -7 -40 -51 -17 -66 -17
-86 1 -79 8 3 17 20 20 38 7 36 32 76 48 76 7 0 8 -19 3 -55 -8 -65 9 -81 53
-48 l27 20 16 -21 c14 -18 20 -19 43 -8 14 6 31 23 38 37 6 13 19 27 28 30 10
3 26 15 36 27 l19 21 -32 -17 c-40 -20 -43 -20 -43 3 0 26 -26 44 -54 37 -15
-4 -29 -19 -39 -43 -15 -39 -53 -81 -63 -71 -3 3 0 25 6 48 8 31 8 45 -1 56
-13 15 -22 18 -32 8z m161 -42 c2 -14 -2 -22 -12 -22 -19 0 -29 17 -22 36 8
22 30 12 34 -14z m-8 -54 c0 -11 -36 -28 -44 -21 -3 3 -6 16 -6 29 0 20 2 21
25 11 14 -7 25 -15 25 -19z"/>
<path d="M6313 6593 c-16 -6 -17 -33 -2 -33 8 0 8 -5 -1 -15 -9 -11 -9 -15 -1
-15 16 0 37 48 25 59 -5 5 -15 6 -21 4z"/>
<path d="M8673 6593 c-17 -6 -16 -33 1 -33 17 0 38 24 29 33 -7 8 -12 8 -30 0z"/>
<path d="M1420 6490 c0 -5 5 -10 11 -10 5 0 7 5 4 10 -3 6 -8 10 -11 10 -2 0
-4 -4 -4 -10z"/>
<path d="M555 6272 c-13 -13 -3 -22 25 -22 17 0 30 4 30 9 0 10 -47 21 -55 13z"/>
<path d="M1448 6223 c7 -3 16 -2 19 1 4 3 -2 6 -13 5 -11 0 -14 -3 -6 -6z"/>
<path d="M640 5871 c0 -5 5 -13 10 -16 6 -3 10 -2 10 4 0 5 -4 13 -10 16 -5 3
-10 2 -10 -4z"/>
<path d="M12670 5851 c0 -5 7 -12 16 -15 14 -5 15 -4 4 9 -14 17 -20 19 -20 6z"/>
<path d="M11393 5822 c-7 -4 -20 -25 -28 -46 -14 -33 -15 -63 -10 -191 9 -173
-1 -222 -62 -335 -152 -281 -502 -558 -850 -674 -96 -32 -147 -63 -151 -93 -5
-36 29 -58 119 -77 247 -53 383 -126 492 -264 113 -143 185 -292 265 -548 53
-169 68 -240 81 -386 5 -58 13 -93 22 -99 24 -15 68 -10 77 9 5 9 12 87 15
172 4 123 11 176 31 253 43 162 109 294 220 442 203 271 452 432 734 476 78
12 99 29 88 74 -4 17 -25 30 -88 55 -311 122 -572 330 -678 539 -62 124 -150
433 -165 577 -7 78 -9 83 -45 107 -26 18 -48 21 -67 9z m196 -768 c70 -123
172 -233 318 -341 85 -63 252 -163 272 -163 23 0 1 -17 -29 -24 -47 -9 -200
-88 -287 -148 -101 -69 -262 -229 -346 -343 -81 -110 -155 -249 -197 -372
l-32 -93 -43 128 c-150 446 -330 663 -635 766 -74 24 -95 36 -67 36 31 0 292
140 387 208 116 82 308 271 379 372 58 82 112 183 130 245 7 22 15 47 17 55 3
8 27 -49 53 -126 26 -77 62 -167 80 -200z"/>
<path d="M12840 5826 c0 -9 30 -14 35 -6 4 6 -3 10 -14 10 -12 0 -21 -2 -21
-4z"/>
<path d="M236 5753 c-6 -14 -5 -15 5 -6 7 7 10 15 7 18 -3 3 -9 -2 -12 -12z"/>
<path d="M1458 5573 c7 -3 16 -2 19 1 4 3 -2 6 -13 5 -11 0 -14 -3 -6 -6z"/>
<path d="M13090 5480 c0 -5 5 -10 11 -10 5 0 7 5 4 10 -3 6 -8 10 -11 10 -2 0
-4 -4 -4 -10z"/>
<path d="M625 5460 c-3 -5 1 -10 9 -10 9 0 16 5 16 10 0 6 -4 10 -9 10 -6 0
-13 -4 -16 -10z"/>
<path d="M13188 5223 c7 -3 16 -2 19 1 4 3 -2 6 -13 5 -11 0 -14 -3 -6 -6z"/>
<path d="M13142 5178 c6 -18 25 -21 25 -3 0 8 -7 15 -14 15 -8 0 -13 -5 -11
-12z"/>
<path d="M13160 5140 c0 -5 5 -10 10 -10 6 0 10 5 10 10 0 6 -4 10 -10 10 -5
0 -10 -4 -10 -10z"/>
<path d="M277 4853 c-4 -3 -7 -11 -7 -17 0 -6 5 -5 12 2 6 6 9 14 7 17 -3 3
-9 2 -12 -2z"/>
<path d="M1425 4840 c3 -5 8 -10 11 -10 2 0 4 5 4 10 0 6 -5 10 -11 10 -5 0
-7 -4 -4 -10z"/>
<path d="M13040 4580 c-13 -8 -13 -10 2 -10 9 0 20 5 23 10 8 13 -5 13 -25 0z"/>
<path d="M13310 4538 c0 -9 5 -20 11 -23 17 -11 18 -2 3 19 -12 17 -14 17 -14
4z"/>
<path d="M5983 4440 c-22 -9 -23 -13 -23 -160 l0 -150 35 0 c25 0 44 8 60 25
27 26 31 46 14 77 -9 16 -7 24 9 41 82 87 11 210 -95 167z m81 -56 c11 -30 6
-58 -16 -81 -12 -13 -25 -23 -30 -23 -4 0 -8 27 -8 60 0 57 1 60 24 60 13 0
27 -7 30 -16z m-34 -184 c0 -11 -6 -20 -14 -20 -9 0 -12 7 -9 20 3 11 9 20 14
20 5 0 9 -9 9 -20z"/>
<path d="M6410 4420 c0 -10 7 -23 17 -28 14 -8 15 -23 10 -108 -3 -56 -10
-100 -16 -102 -6 -2 -11 -15 -11 -28 0 -22 4 -24 50 -24 47 0 50 2 50 25 0 16
-6 25 -15 25 -12 0 -15 19 -15 110 0 91 3 110 15 110 8 0 15 9 15 20 0 17 -7
20 -50 20 -43 0 -50 -3 -50 -20z"/>
<path d="M7665 4407 c-66 -66 -71 -183 -10 -244 55 -55 121 -44 149 27 22 54
21 80 -3 80 -10 0 -33 3 -50 6 -28 6 -31 4 -31 -20 0 -21 5 -26 25 -26 30 0
33 -20 7 -43 -25 -23 -39 -21 -67 8 -55 54 -18 200 50 200 23 0 33 -7 43 -27
8 -17 21 -28 34 -28 17 0 19 4 13 28 -19 78 -101 98 -160 39z"/>
<path d="M7020 4346 c0 -126 9 -176 31 -176 16 0 19 8 19 49 0 36 4 51 16 55
24 9 29 0 29 -50 0 -39 3 -44 23 -44 20 0 22 5 22 48 0 60 -21 92 -61 92 -26
0 -29 3 -29 33 0 51 -11 77 -31 77 -17 0 -19 -8 -19 -84z"/>
<path d="M6553 4293 c4 -69 9 -128 11 -130 2 -2 21 -1 42 3 99 18 117 134 24
153 -33 6 -35 9 -38 54 -3 40 -6 47 -24 47 -21 0 -21 -3 -15 -127z m86 -27
c15 -18 3 -46 -20 -46 -13 0 -19 7 -19 23 0 37 18 48 39 23z"/>
<path d="M8017 4333 c9 -186 9 -186 81 -157 39 15 62 47 62 84 0 30 -36 60
-70 60 -29 0 -30 1 -30 50 0 46 -2 50 -24 50 -24 0 -24 -1 -19 -87z m88 -84
c0 -15 -7 -25 -17 -27 -13 -3 -18 3 -18 21 0 13 3 27 7 31 13 12 28 -1 28 -25z"/>
<path d="M6892 4363 c-30 -26 -32 -57 -4 -61 15 -2 22 2 22 12 0 9 5 16 10 16
21 0 10 -39 -12 -42 -26 -4 -48 -41 -41 -69 7 -24 26 -35 76 -44 l37 -7 0 81
c0 74 -2 84 -25 106 -29 30 -36 30 -63 8z m46 -125 c-6 -18 -28 -21 -28 -4 0
9 7 16 16 16 9 0 14 -5 12 -12z"/>
<path d="M7204 4365 c-7 -18 3 -35 21 -35 21 0 28 19 15 35 -16 19 -29 19 -36
0z"/>
<path d="M7880 4360 c-11 -11 -20 -29 -20 -40 0 -13 7 -20 20 -20 12 0 20 7
20 16 0 20 24 13 28 -8 2 -10 -7 -17 -27 -21 -33 -7 -46 -34 -37 -72 5 -18 17
-27 47 -35 65 -18 69 -12 63 77 -4 67 -9 81 -30 101 -31 27 -39 27 -64 2z m50
-118 c0 -13 -12 -22 -22 -16 -10 6 -1 24 13 24 5 0 9 -4 9 -8z"/>
<path d="M7290 4281 c0 -82 2 -91 19 -91 15 0 20 10 26 55 7 59 25 85 25 37 0
-101 40 -127 51 -34 11 87 30 85 37 -2 3 -43 8 -55 23 -59 17 -5 19 1 19 53 0
61 -15 109 -34 112 -6 1 -29 2 -51 3 -22 0 -57 5 -77 9 l-38 8 0 -91z"/>
<path d="M6150 4325 c0 -49 27 -95 60 -101 23 -5 30 -12 30 -30 0 -25 -21 -45
-28 -26 -2 7 -15 12 -29 12 -32 0 -28 -26 8 -52 30 -22 63 -18 78 10 5 9 12
61 16 115 l7 97 -26 0 c-24 0 -26 -4 -26 -39 0 -24 -5 -41 -14 -44 -20 -8 -26
2 -26 45 0 34 -3 38 -25 38 -20 0 -25 -5 -25 -25z"/>
<path d="M6730 4265 c0 -84 0 -85 25 -85 23 0 25 3 24 43 -2 51 4 65 37 77 26
10 29 17 15 39 -7 11 -13 11 -32 1 -17 -10 -24 -10 -27 -1 -2 6 -12 11 -23 11
-17 0 -19 -8 -19 -85z"/>
<path d="M8225 4325 c-50 -49 -21 -155 41 -155 26 0 64 27 64 46 0 11 -11 14
-41 12 -27 -2 -43 2 -46 10 -3 8 10 12 46 12 55 0 56 1 40 49 -19 55 -65 66
-104 26z m52 -31 c-3 -3 -12 -4 -19 -1 -8 3 -5 6 6 6 11 1 17 -2 13 -5z"/>
<path d="M8380 4265 c0 -78 2 -85 20 -85 16 0 20 7 20 38 0 41 23 82 46 82 8
0 14 10 14 25 0 28 0 28 -34 15 -17 -6 -26 -6 -26 0 0 6 -9 10 -20 10 -18 0
-20 -7 -20 -85z"/>
<path d="M7200 4262 c0 -64 7 -82 32 -82 17 0 19 6 16 63 -3 56 -5 62 -25 65
-21 3 -23 0 -23 -46z"/>
<path d="M13768 4123 c7 -3 16 -2 19 1 4 3 -2 6 -13 5 -11 0 -14 -3 -6 -6z"/>
<path d="M13758 3803 c7 -3 16 -2 19 1 4 3 -2 6 -13 5 -11 0 -14 -3 -6 -6z"/>
<path d="M13210 3370 c0 -5 5 -10 10 -10 6 0 10 5 10 10 0 6 -4 10 -10 10 -5
0 -10 -4 -10 -10z"/>
<path d="M13848 3013 c7 -3 16 -2 19 1 4 3 -2 6 -13 5 -11 0 -14 -3 -6 -6z"/>
<path d="M12776 2985 c4 -8 8 -15 10 -15 2 0 4 7 4 15 0 8 -4 15 -10 15 -5 0
-7 -7 -4 -15z"/>
<path d="M12410 2965 c14 -16 56 -20 64 -6 6 9 -26 21 -58 21 -15 0 -16 -3 -6
-15z"/>
<path d="M12135 2820 c-3 -5 1 -10 9 -10 9 0 16 5 16 10 0 6 -4 10 -9 10 -6 0
-13 -4 -16 -10z"/>
<path d="M1736 2804 c-5 -12 -2 -15 10 -10 8 3 18 6 20 6 2 0 4 5 4 10 0 16
-27 11 -34 -6z"/>
<path d="M5208 2813 c7 -3 16 -2 19 1 4 3 -2 6 -13 5 -11 0 -14 -3 -6 -6z"/>
<path d="M5575 2810 c26 -11 65 -12 65 -2 0 4 -19 8 -43 8 -30 1 -36 -1 -22
-6z"/>
<path d="M7760 2810 c0 -5 9 -10 21 -10 11 0 17 5 14 10 -3 6 -13 10 -21 10
-8 0 -14 -4 -14 -10z"/>
<path d="M5888 2803 c6 -2 18 -2 25 0 6 3 1 5 -13 5 -14 0 -19 -2 -12 -5z"/>
<path d="M6794 2801 c3 -5 15 -7 26 -4 28 7 25 13 -6 13 -14 0 -23 -4 -20 -9z"/>
<path d="M8220 2802 c0 -5 7 -9 15 -9 8 0 12 4 9 9 -3 4 -9 8 -15 8 -5 0 -9
-4 -9 -8z"/>
<path d="M9458 2803 c6 -2 18 -2 25 0 6 3 1 5 -13 5 -14 0 -19 -2 -12 -5z"/>
<path d="M4925 2790 c4 -6 11 -8 16 -5 14 9 11 15 -7 15 -8 0 -12 -5 -9 -10z"/>
<path d="M5953 2793 c9 -2 25 -2 35 0 9 3 1 5 -18 5 -19 0 -27 -2 -17 -5z"/>
<path d="M8808 2793 c7 -3 16 -2 19 1 4 3 -2 6 -13 5 -11 0 -14 -3 -6 -6z"/>
<path d="M11198 2793 c7 -3 16 -2 19 1 4 3 -2 6 -13 5 -11 0 -14 -3 -6 -6z"/>
<path d="M4610 2780 c-8 -5 -10 -10 -5 -10 6 0 17 5 25 10 8 5 11 10 5 10 -5
0 -17 -5 -25 -10z"/>
<path d="M7185 2780 c3 -5 11 -10 16 -10 6 0 7 5 4 10 -3 6 -11 10 -16 10 -6
0 -7 -4 -4 -10z"/>
<path d="M5480 2766 c0 -18 17 -29 30 -21 8 5 7 11 -1 21 -15 18 -29 18 -29 0z"/>
<path d="M7838 2773 c7 -3 16 -2 19 1 4 3 -2 6 -13 5 -11 0 -14 -3 -6 -6z"/>
<path d="M8090 2769 c0 -5 5 -7 10 -4 6 3 10 8 10 11 0 2 -4 4 -10 4 -5 0 -10
-5 -10 -11z"/>
<path d="M9203 2773 c9 -2 23 -2 30 0 6 3 -1 5 -18 5 -16 0 -22 -2 -12 -5z"/>
<path d="M8796 2736 c3 -9 11 -16 16 -16 13 0 5 23 -10 28 -7 2 -10 -2 -6 -12z"/>
<path d="M4668 2695 c-4 -17 -1 -25 8 -25 8 0 14 9 14 19 0 30 -17 34 -22 6z"/>
<path d="M5829 2703 c-12 -15 -12 -16 4 -10 10 4 27 7 38 7 10 0 19 5 19 10 0
16 -47 11 -61 -7z"/>
<path d="M4675 2609 c-4 -6 -5 -12 -2 -15 2 -3 7 2 10 11 7 17 1 20 -8 4z"/>
<path d="M7960 2480 c-12 -7 -10 -9 7 -7 12 0 19 5 17 9 -6 10 -6 10 -24 -2z"/>
<path d="M12547 2473 c-12 -12 -7 -22 8 -17 8 4 15 10 15 15 0 11 -14 12 -23
2z"/>
<path d="M12820 2270 c0 -5 5 -10 10 -10 6 0 10 5 10 10 0 6 -4 10 -10 10 -5
0 -10 -4 -10 -10z"/>
<path d="M13880 2189 c0 -5 5 -7 10 -4 6 3 10 8 10 11 0 2 -4 4 -10 4 -5 0
-10 -5 -10 -11z"/>
<path d="M7630 2100 c0 -5 5 -10 10 -10 6 0 10 5 10 10 0 6 -4 10 -10 10 -5 0
-10 -4 -10 -10z"/>
<path d="M7643 2065 c-3 -9 -3 -18 -1 -21 3 -3 8 4 11 16 6 23 -1 27 -10 5z"/>
<path d="M5578 2063 c7 -3 16 -2 19 1 4 3 -2 6 -13 5 -11 0 -14 -3 -6 -6z"/>
<path d="M2705 1999 c-4 -6 -5 -12 -2 -15 2 -3 7 2 10 11 7 17 1 20 -8 4z"/>
<path d="M13951 1914 c-87 -81 -102 -111 -52 -101 25 5 30 3 33 -16 5 -32 34
-32 66 1 66 70 83 92 77 103 -4 5 -12 8 -19 6 -9 -4 -11 7 -9 33 2 22 -1 41
-6 44 -4 3 -45 -29 -90 -70z"/>
<path d="M12175 1960 c-3 -5 1 -10 10 -10 9 0 13 5 10 10 -3 6 -8 10 -10 10
-2 0 -7 -4 -10 -10z"/>
<path d="M9790 1905 c-7 -8 -9 -15 -6 -15 4 0 14 7 22 15 9 8 11 15 6 15 -5 0
-15 -7 -22 -15z"/>
<path d="M13213 1862 c-37 -55 -53 -129 -30 -138 20 -7 125 47 165 86 22 22
32 42 32 62 0 28 -2 30 -30 26 -16 -2 -31 0 -33 6 -3 8 -11 7 -25 -1 -13 -8
-23 -9 -27 -3 -11 17 -19 11 -52 -38z"/>
<path d="M13525 1790 c-3 -5 -2 -10 4 -10 5 0 13 5 16 10 3 6 2 10 -4 10 -5 0
-13 -4 -16 -10z"/>
<path d="M13450 1780 c-24 -8 -23 -8 8 -9 17 -1 32 4 32 9 0 11 -5 11 -40 0z"/>
<path d="M12504 1751 c-117 -67 -110 -156 9 -121 55 16 97 56 97 92 0 17 -5
28 -14 28 -8 0 -16 7 -20 15 -7 20 -13 19 -72 -14z"/>
<path d="M2904 1764 c-17 -7 -5 -42 17 -49 29 -9 43 4 22 21 -14 11 -15 13 -3
14 13 0 13 1 0 10 -16 11 -19 11 -36 4z"/>
<path d="M12390 1740 c0 -5 5 -10 11 -10 5 0 7 5 4 10 -3 6 -8 10 -11 10 -2 0
-4 -4 -4 -10z"/>
<path d="M9685 1600 c-3 -5 -2 -10 4 -10 5 0 13 5 16 10 3 6 2 10 -4 10 -5 0
-13 -4 -16 -10z"/>
<path d="M11318 1603 c7 -3 16 -2 19 1 4 3 -2 6 -13 5 -11 0 -14 -3 -6 -6z"/>
<path d="M12895 1480 c-3 -5 -12 -7 -21 -3 -25 10 -103 -27 -129 -61 -34 -44
-32 -59 4 -54 26 4 28 2 20 -13 -15 -29 12 -28 74 4 73 37 128 83 120 103 -3
8 -11 14 -19 14 -8 0 -14 5 -14 10 0 13 -27 13 -35 0z"/>
<path d="M13564 1466 c-26 -19 -69 -75 -78 -102 -5 -16 0 -24 20 -35 15 -7 30
-22 33 -33 17 -43 92 -17 96 33 1 11 7 27 15 36 14 17 24 115 12 115 -4 0 -23
-10 -42 -21 -19 -12 -29 -15 -22 -8 27 29 2 40 -34 15z"/>
<path d="M3688 1293 c7 -3 16 -2 19 1 4 3 -2 6 -13 5 -11 0 -14 -3 -6 -6z"/>
<path d="M9861 1194 c0 -11 3 -14 6 -6 3 7 2 16 -1 19 -3 4 -6 -2 -5 -13z"/>
<path d="M12195 1172 c-46 -29 -58 -49 -61 -103 -2 -53 5 -61 68 -80 26 -7 34
-4 66 27 74 72 88 113 52 152 -26 28 -83 29 -125 4z m81 -51 c-3 -5 -16 -11
-28 -14 -22 -6 -22 -5 -4 8 22 17 40 20 32 6z m-56 -65 c0 -8 -7 -17 -16 -20
-28 -11 -34 -6 -22 14 15 23 38 27 38 6z"/>
<path d="M4610 1149 c0 -14 20 -20 36 -11 14 8 12 10 -10 14 -14 3 -26 2 -26
-3z"/>
<path d="M13970 1150 c-7 -4 -19 -6 -27 -3 -14 5 -59 -25 -106 -72 -29 -29
-31 -51 -5 -49 11 1 14 -5 10 -19 -4 -17 -2 -19 19 -12 13 4 41 8 61 9 56 2
130 78 94 98 -9 5 -16 18 -16 28 0 23 -12 31 -30 20z"/>
<path d="M13125 1141 c-3 -6 -26 -13 -51 -17 -34 -5 -48 -12 -54 -28 -4 -12
-15 -28 -24 -35 -22 -18 -20 -27 11 -66 21 -27 33 -33 50 -29 18 5 22 3 17 -9
-20 -53 86 8 147 84 35 44 30 71 -9 50 -29 -16 -34 -14 -20 9 11 16 9 22 -7
34 -23 17 -51 20 -60 7z m-20 -71 c-10 -11 -23 -20 -29 -20 -6 1 0 10 13 20
30 26 39 26 16 0z"/>
<path d="M1471 1104 c0 -11 3 -14 6 -6 3 7 2 16 -1 19 -3 4 -6 -2 -5 -13z"/>
<path d="M4250 946 c0 -8 -3 -23 -6 -33 -5 -12 -4 -15 3 -8 16 15 26 55 14 55
-6 0 -11 -6 -11 -14z"/>
<path d="M3770 903 c0 -4 5 -15 10 -23 8 -13 10 -13 10 2 0 9 -4 20 -10 23 -5
3 -10 3 -10 -2z"/>
<path d="M13456 821 c-3 -4 -44 -30 -91 -56 -47 -26 -85 -54 -85 -61 0 -18 14
-18 53 3 30 15 31 15 18 -1 -22 -27 1 -44 39 -29 l30 11 -25 -30 c-29 -34 -25
-51 11 -42 21 5 24 3 22 -16 -2 -13 2 -25 8 -27 15 -5 114 86 137 125 18 32
10 49 -18 38 -8 -3 -15 -1 -15 4 0 6 -7 10 -15 10 -8 0 -16 6 -16 13 -2 21 -5
31 -13 50 -9 18 -31 23 -40 8z"/>
<path d="M10108 793 c7 -3 16 -2 19 1 4 3 -2 6 -13 5 -11 0 -14 -3 -6 -6z"/>
<path d="M12670 670 c-13 -9 -13 -10 0 -10 8 0 22 5 30 10 13 9 13 10 0 10 -8
0 -22 -5 -30 -10z"/>
<path d="M12725 651 c-105 -48 -129 -131 -38 -131 21 0 32 -5 31 -12 -4 -19
82 -10 105 10 12 10 16 24 13 38 -4 13 0 27 9 34 20 16 19 50 0 50 -9 0 -18 7
-21 15 -8 20 -50 19 -99 -4z"/>
<path d="M14104 638 c-16 -12 -32 -27 -36 -33 -10 -13 -3 -31 11 -27 6 1 11
-7 11 -18 0 -11 5 -20 11 -20 7 0 18 -8 25 -17 11 -16 13 -7 14 60 0 42 -2 77
-4 77 -2 0 -16 -10 -32 -22z"/>
<path d="M4155 641 c3 -6 15 -8 27 -6 34 7 34 15 -1 15 -18 0 -30 -4 -26 -9z"/>
<path d="M11880 630 c0 -5 5 -10 11 -10 5 0 7 5 4 10 -3 6 -8 10 -11 10 -2 0
-4 -4 -4 -10z"/>
<path d="M127 546 c-4 -10 -5 -21 -2 -24 9 -9 17 6 13 25 -3 17 -4 17 -11 -1z"/>
<path d="M12090 508 c-66 -41 -78 -58 -62 -92 27 -59 101 -54 164 12 47 47 58
86 30 101 -35 19 -76 12 -132 -21z m20 -45 c-1 -15 -30 -46 -37 -40 -3 4 2 16
12 27 19 21 25 24 25 13z"/>
<path d="M13396 524 c-8 -21 -8 -21 14 -27 11 -3 20 -1 20 3 0 16 -12 40 -20
40 -4 0 -11 -7 -14 -16z"/>
<path d="M13000 510 c0 -5 6 -10 14 -10 8 0 18 5 21 10 3 6 -3 10 -14 10 -12
0 -21 -4 -21 -10z"/>
<path d="M13792 346 c-22 -24 -50 -63 -62 -86 -22 -42 -20 -75 3 -67 6 2 24
-7 39 -20 l26 -25 55 35 c61 39 68 52 63 117 -3 37 -8 46 -26 48 -12 2 -25 12
-27 23 -8 29 -27 23 -71 -25z m23 -136 c-3 -5 -12 -10 -18 -10 -7 0 -6 4 3 10
19 12 23 12 15 0z"/>
<path d="M3387 283 c-4 -3 2 -13 14 -21 23 -16 32 -12 23 12 -6 16 -25 21 -37
9z"/>
<path d="M13165 241 c-47 -21 -115 -93 -115 -120 0 -26 37 -51 73 -51 38 0 78
22 116 65 34 39 38 56 18 77 -7 7 -16 21 -20 31 -8 21 -22 21 -72 -2z m65 -55
c0 -15 -20 -44 -20 -29 0 6 -2 18 -5 26 -4 8 0 14 10 14 8 0 15 -5 15 -11z"/>
<path d="M12443 102 c-29 -14 -55 -34 -58 -44 -3 -10 -8 -27 -11 -38 -5 -19
-1 -20 83 -20 l88 0 18 32 c17 29 17 33 3 44 -9 6 -13 14 -10 17 3 3 3 11 -1
17 -5 8 -11 8 -21 -1 -12 -10 -15 -10 -12 1 5 22 -24 20 -79 -8z m70 -79 c-7
-2 -21 -2 -30 0 -10 3 -4 5 12 5 17 0 24 -2 18 -5z"/>
<path d="M905 50 c-3 -5 1 -10 9 -10 9 0 16 5 16 10 0 6 -4 10 -9 10 -6 0 -13
-4 -16 -10z"/>
</g>
</svg>
